<svg width="387" height="137" viewBox="0 0 387 137" fill="none" xmlns="http://www.w3.org/2000/svg">
<path d="M384 68.5C384 76.7214 379.301 84.9678 369.868 92.8627C360.452 100.744 346.646 107.977 329.324 114.109C294.706 126.364 246.685 134 193.5 134C140.315 134 92.294 126.364 57.676 114.109C40.3535 107.977 26.5484 100.744 17.1317 92.8627C7.69886 84.9678 3 76.7214 3 68.5C3 60.2786 7.69886 52.0322 17.1317 44.1373C26.5484 36.2558 40.3535 29.0234 57.676 22.8912C92.294 10.6363 140.315 3 193.5 3C246.685 3 294.706 10.6363 329.324 22.8912C346.646 29.0234 360.452 36.2558 369.868 44.1373C379.301 52.0322 384 60.2786 384 68.5Z" fill="white" stroke="black" stroke-width="6"/>
<path d="M92.4827 35.98C92.3827 36.62 92.3427 37.38 92.3627 38.02C92.4227 41.32 92.5627 46.82 92.6027 50.86C92.6227 52.14 91.8827 52.88 90.3627 52.88C89.1427 52.88 88.0427 52.84 86.9027 52.76L86.6627 50.16C87.5827 50.3 88.6627 50.38 89.3427 50.38C89.8427 50.38 90.0227 50.12 90.0227 49.56C90.0227 46.8 89.9827 41.32 89.8227 38.02C89.7627 37.16 89.7227 36.52 89.6227 35.98H92.4827ZM81.0627 39.32C81.6227 39.38 82.5827 39.46 83.2627 39.46C84.6627 39.46 93.9027 39.46 94.8827 39.46C95.5227 39.46 96.4627 39.36 96.9427 39.3V41.94C96.3227 41.92 95.5427 41.9 95.0027 41.9C94.2227 41.9 84.4427 41.9 83.3427 41.9C82.6027 41.9 81.7627 41.94 81.0627 41.98V39.32ZM79.9827 48.84C84.1627 46.84 87.6627 43.76 89.1027 41.4H90.4027L90.4227 43.54C88.8027 45.96 85.2627 49.1 81.8227 50.92L79.9827 48.84ZM102.183 38.42C102.923 38.5 103.843 38.54 104.543 38.54C106.223 38.54 111.723 38.54 112.823 38.54C113.623 38.54 114.463 38.5 115.043 38.42V41.32C114.463 41.3 113.523 41.26 112.823 41.26C111.763 41.26 105.663 41.26 104.543 41.26C103.783 41.26 102.863 41.3 102.183 41.32V38.42ZM100.503 48.22C101.283 48.26 102.223 48.34 103.023 48.34C104.283 48.34 113.243 48.34 114.503 48.34C115.163 48.34 116.023 48.28 116.703 48.22V51.28C115.983 51.2 115.083 51.14 114.503 51.14C113.243 51.14 104.283 51.14 103.023 51.14C102.223 51.14 101.263 51.2 100.503 51.28V48.22ZM121.603 34.98H128.223V37.14H123.963V47.76H121.603V34.98ZM140.243 35.68C140.123 36.54 140.103 36.94 140.103 37.52C140.103 38.04 140.103 39.64 140.103 40.4H137.303C137.303 39.52 137.303 38.04 137.303 37.52C137.303 36.94 137.283 36.54 137.163 35.68H140.243ZM146.963 39.9C146.823 40.34 146.663 41.1 146.583 41.48C146.223 43.4 145.703 45.34 144.703 47.16C143.123 50.1 140.103 52.22 136.543 53.16L134.463 50.76C135.383 50.6 136.463 50.3 137.303 49.96C138.943 49.34 140.703 48.16 141.843 46.56C142.843 45.08 143.363 43.18 143.603 41.4H133.683C133.683 42.1 133.683 43.72 133.683 44.34C133.683 44.78 133.703 45.42 133.763 45.82H131.003C131.063 45.32 131.083 44.68 131.083 44.14C131.083 43.48 131.083 41.42 131.083 40.66C131.083 40.22 131.083 39.42 131.003 38.96C131.683 39.02 132.283 39.04 133.043 39.04H143.583C144.403 39.04 144.883 38.96 145.243 38.84L146.963 39.9ZM152.723 41.18C153.163 41.24 153.883 41.28 154.323 41.28H163.463C163.963 41.28 164.543 41.24 165.023 41.18V43.68C164.523 43.64 163.923 43.62 163.463 43.62H154.323C153.883 43.62 153.163 43.64 152.723 43.68V41.18ZM157.423 51.4V42.54H160.043V51.4H157.423ZM151.723 49.92C152.223 50 152.843 50.04 153.363 50.04H164.403C164.963 50.04 165.503 49.98 165.923 49.92V52.54C165.503 52.48 164.763 52.46 164.403 52.46H153.363C152.863 52.46 152.243 52.48 151.723 52.54V49.92ZM178.843 51.56C178.943 51.18 179.003 50.64 179.003 50.1C179.003 49.04 179.003 40.06 179.003 38.44C179.003 37.54 178.863 36.76 178.863 36.72H181.823C181.823 36.76 181.683 37.56 181.683 38.46C181.683 40.06 181.683 47.68 181.683 48.9C183.323 48.2 185.283 46.62 186.643 44.68L188.163 46.9C186.503 49.06 183.643 51.22 181.383 52.36C180.963 52.58 180.723 52.8 180.523 52.94L178.843 51.56ZM169.583 51.28C171.363 50.04 172.443 48.2 172.983 46.48C173.563 44.78 173.583 40.98 173.583 38.58C173.583 37.76 173.503 37.24 173.383 36.74H176.323C176.323 36.82 176.183 37.72 176.183 38.54C176.183 40.92 176.123 45.14 175.603 47.16C174.983 49.4 173.743 51.38 172.023 52.9L169.583 51.28ZM198.837 35.96C198.777 36.44 198.717 37.28 198.697 37.76C198.477 45.7 196.597 49.76 192.177 52.9L189.837 51.02C190.677 50.56 191.677 49.9 192.477 49.08C195.097 46.48 196.017 43.08 196.037 37.8C196.037 37.36 195.957 36.44 195.877 35.96H198.837ZM205.617 40.26C205.557 40.58 205.497 41.08 205.497 41.3C205.417 43.48 205.157 49.06 204.297 51.1C203.877 52.1 203.097 52.64 201.737 52.64C200.577 52.64 199.397 52.54 198.417 52.46L198.097 49.8C199.097 49.96 200.117 50.08 200.917 50.08C201.557 50.08 201.837 49.86 202.037 49.36C202.617 48.1 202.897 44.1 202.897 41.94H193.137C192.457 41.94 191.337 41.96 190.497 42.04V39.4C191.337 39.5 192.357 39.54 193.117 39.54H202.377C202.897 39.54 203.417 39.5 203.897 39.4L205.617 40.26ZM219.277 36.92C219.017 37.52 218.737 38.26 218.437 39.16C217.697 41.4 215.617 47.84 214.757 49.92L211.817 50.02C212.897 47.46 214.977 40.9 215.637 38.58C215.917 37.58 216.017 36.94 216.097 36.28L219.277 36.92ZM222.857 43.38C224.297 45.54 226.337 49.48 227.257 51.7L224.557 52.9C223.657 50.48 221.797 46.34 220.377 44.42L222.857 43.38ZM211.617 49.12C214.397 49.02 220.937 48.28 223.737 47.9L224.317 50.46C221.357 50.84 214.477 51.56 211.777 51.84C211.277 51.9 210.517 52 209.897 52.08L209.417 49.14C210.097 49.16 210.977 49.14 211.617 49.12ZM237.577 35.98C237.397 36.72 237.317 37.24 237.217 37.76C236.977 39.48 236.037 46.08 236.037 48.1C236.037 49.76 237.037 50.66 238.997 50.66C241.797 50.66 243.337 49.36 243.337 47.72C243.337 46.38 242.577 45.08 241.277 43.86L244.077 43.26C245.417 44.94 246.017 46.34 246.017 48.04C246.017 51.06 243.317 53.24 238.937 53.24C235.777 53.24 233.557 51.88 233.557 48.52C233.557 46.48 234.517 40.4 234.717 37.6C234.797 36.68 234.797 36.28 234.757 35.82L237.577 35.98ZM230.437 38.46C232.177 39.04 234.657 39.3 236.697 39.3C238.237 39.3 239.657 39.2 240.657 39.02L240.577 41.42C239.397 41.54 238.297 41.6 236.617 41.6C234.597 41.6 232.157 41.28 230.317 40.76L230.437 38.46ZM229.997 43.42C232.157 44.16 234.477 44.32 236.497 44.32C237.717 44.32 239.197 44.24 240.497 44.08L240.437 46.46C239.337 46.58 238.157 46.64 236.897 46.64C234.237 46.64 231.697 46.36 229.877 45.84L229.997 43.42ZM257.577 35.98C257.397 36.72 257.317 37.24 257.217 37.76C256.977 39.48 256.037 46.08 256.037 48.1C256.037 49.76 257.037 50.66 258.997 50.66C261.797 50.66 263.337 49.36 263.337 47.72C263.337 46.38 262.577 45.08 261.277 43.86L264.077 43.26C265.417 44.94 266.017 46.34 266.017 48.04C266.017 51.06 263.317 53.24 258.937 53.24C255.777 53.24 253.557 51.88 253.557 48.52C253.557 46.48 254.517 40.4 254.717 37.6C254.797 36.68 254.797 36.28 254.757 35.82L257.577 35.98ZM250.437 38.46C252.177 39.04 254.657 39.3 256.697 39.3C258.237 39.3 259.657 39.2 260.657 39.02L260.577 41.42C259.397 41.54 258.297 41.6 256.617 41.6C254.597 41.6 252.157 41.28 250.317 40.76L250.437 38.46ZM249.997 43.42C252.157 44.16 254.477 44.32 256.497 44.32C257.717 44.32 259.197 44.24 260.497 44.08L260.437 46.46C259.337 46.58 258.157 46.64 256.897 46.64C254.237 46.64 251.697 46.36 249.877 45.84L249.997 43.42ZM271.037 43.54C271.637 43.44 272.557 43.2 273.157 43C274.537 42.6 277.917 41.44 280.337 41.44C283.517 41.44 285.637 43.32 285.637 46.36C285.637 49.96 282.437 52.44 276.097 52.82L275.037 50.36C279.597 50.24 282.977 49.02 282.977 46.3C282.977 44.82 281.857 43.76 280.097 43.76C277.777 43.76 273.797 45.42 272.077 46.14L271.037 43.54ZM288.777 46.4C289.377 45.94 289.857 45.5 290.457 44.84C291.397 43.9 292.937 41.82 294.177 40.38C295.577 38.8 296.877 38.66 298.337 40.08C299.697 41.42 301.297 43.48 302.457 44.74C303.737 46.14 305.457 47.94 307.357 49.66L305.257 52.02C303.837 50.66 302.177 48.66 300.897 47.16C299.657 45.7 298.157 43.8 297.217 42.76C296.537 41.96 296.137 42.08 295.557 42.82C294.757 43.8 293.317 45.78 292.437 46.92C291.997 47.56 291.537 48.36 291.177 48.9L288.777 46.4ZM302.557 39.96C302.557 40.66 303.117 41.24 303.817 41.24C304.517 41.24 305.097 40.66 305.097 39.96C305.097 39.26 304.517 38.68 303.817 38.68C303.117 38.68 302.557 39.26 302.557 39.96ZM301.237 39.96C301.237 38.52 302.377 37.34 303.817 37.34C305.257 37.34 306.437 38.52 306.437 39.96C306.437 41.4 305.257 42.54 303.817 42.54C302.377 42.54 301.237 41.4 301.237 39.96ZM158.62 60.82C158.48 60.36 158.24 59.64 158 58.98L160.7 58.66C161 60.2 161.48 61.78 161.96 63.06C162.58 64.74 163.52 66.46 164.18 67.38C164.52 67.88 164.88 68.3 165.24 68.72L164.02 70.5C162.9 70.28 160.36 70.02 158.68 69.88L158.88 67.76C159.86 67.86 161.18 67.96 161.8 68.02C161.08 66.84 160.2 65.16 159.58 63.5C159.14 62.4 158.86 61.48 158.62 60.82ZM151.34 61.76C155.08 62.2 158.12 62.18 160.52 61.92C162.3 61.7 164.06 61.36 165.64 60.88L165.94 63.38C164.62 63.76 162.9 64.06 161.3 64.24C158.64 64.56 155.48 64.64 151.38 64.3L151.34 61.76ZM155.36 68.56C154.7 69.52 154.38 70.4 154.38 71.26C154.38 72.96 155.88 73.66 158.62 73.68C160.8 73.68 162.56 73.46 163.96 73.18L163.82 75.72C162.68 75.92 160.88 76.18 158.46 76.18C154.36 76.18 151.8 74.6 151.8 71.7C151.8 70.48 152.18 69.34 152.86 67.98L155.36 68.56ZM180.04 60.16C179.82 60.42 179.62 60.76 179.4 61.1C178.4 62.52 177 65.08 176.02 66.86C176.76 66.42 177.54 66.24 178.3 66.24C179.8 66.24 180.7 67.18 180.78 68.86C180.82 69.74 180.78 71.34 180.88 72.18C180.96 72.96 181.5 73.28 182.16 73.28C183.9 73.28 184.98 71.02 185.54 68.54L187.72 70.3C186.66 73.74 184.82 76.02 181.74 76.02C179.52 76.02 178.5 74.68 178.4 73.24C178.34 72.16 178.34 70.54 178.28 69.72C178.22 69.02 177.84 68.6 177.12 68.6C175.76 68.6 174.62 70 173.92 71.62C173.38 72.78 172.7 75.02 172.4 76.08L169.58 75.12C171.04 71.12 175.14 62.96 176.22 61.04C176.46 60.52 176.84 59.86 177.2 59.02L180.04 60.16ZM191.34 66.54C191.94 66.44 192.86 66.2 193.46 66C194.84 65.6 198.22 64.44 200.64 64.44C203.82 64.44 205.94 66.32 205.94 69.36C205.94 72.96 202.74 75.44 196.4 75.82L195.34 73.36C199.9 73.24 203.28 72.02 203.28 69.3C203.28 67.82 202.16 66.76 200.4 66.76C198.08 66.76 194.1 68.42 192.38 69.14L191.34 66.54ZM225.16 61.46C225 61.68 224.64 62.28 224.46 62.7C223.64 64.6 222.16 67.32 220.44 69.32C218.2 71.9 215.18 74.38 212.08 75.84L210 73.68C213.24 72.48 216.32 70.04 218.2 67.96C219.52 66.46 220.74 64.48 221.2 63.06C220.36 63.06 215.26 63.06 214.4 63.06C213.58 63.06 212.48 63.16 212.04 63.2V60.34C212.58 60.42 213.82 60.48 214.4 60.48C215.46 60.48 220.58 60.48 221.46 60.48C222.34 60.48 223.12 60.38 223.54 60.24L225.16 61.46ZM220.7 67.66C222.76 69.34 225.6 72.32 226.9 73.92L224.62 75.9C223.14 73.84 220.96 71.46 218.82 69.52L220.7 67.66ZM235.68 76.84H229.06V74.68H233.32V64.06H235.68V76.84ZM94.4771 81.68C94.9771 82.38 95.6971 83.6 96.0771 84.38L94.5571 85.06C94.0571 83.96 93.6371 83.18 93.0171 82.28L94.4771 81.68ZM96.6971 80.76C97.1971 81.46 97.9571 82.64 98.3771 83.42L96.8771 84.14C96.3371 83.06 95.8771 82.3 95.2371 81.44L96.6971 80.76ZM81.5771 83.74C84.4971 84.08 86.9371 84.14 89.0571 83.98C90.8771 83.84 92.2771 83.54 93.3171 83.22L93.6371 85.5C92.5971 85.76 91.3171 86.02 89.5771 86.16C87.4971 86.32 84.7371 86.32 81.6971 86.04L81.5771 83.74ZM81.2171 87.94C84.8171 88.28 88.0571 88.24 90.4571 88C92.5971 87.8 94.1171 87.4 95.2771 87.06L95.6571 89.44C94.4571 89.74 92.9971 90 91.3771 90.2C88.8371 90.48 84.9571 90.52 81.3371 90.28L81.2171 87.94ZM87.8771 84.3C87.6771 83.56 87.4571 82.82 87.1771 82.04L89.8571 81.76C90.0971 83.66 90.5771 85.42 91.1171 86.98C91.5771 88.36 92.5771 90.42 93.4971 91.82C93.7571 92.22 94.0371 92.52 94.3971 92.86L93.1771 94.7C92.0571 94.46 89.8971 94.22 88.4371 94.06L88.6371 92.16C89.4771 92.24 90.5571 92.34 91.1571 92.38C90.0771 90.6 89.3571 88.86 88.8371 87.4C88.3571 86 88.1371 85.28 87.8771 84.3ZM85.0371 92.58C84.5571 93.24 84.1571 93.94 84.1571 94.8C84.1571 96.26 85.5571 96.88 88.2171 96.88C90.0971 96.88 91.7971 96.72 93.2371 96.44L93.0971 98.98C91.6971 99.2 89.8571 99.36 88.2171 99.36C84.2171 99.36 81.7371 98.16 81.6971 95.32C81.6571 94.02 82.0971 93.04 82.5571 92.1L85.0371 92.58ZM110.577 83.16C110.357 83.42 110.157 83.76 109.937 84.1C108.937 85.52 107.537 88.08 106.557 89.86C107.297 89.42 108.077 89.24 108.837 89.24C110.337 89.24 111.237 90.18 111.317 91.86C111.357 92.74 111.317 94.34 111.417 95.18C111.497 95.96 112.037 96.28 112.697 96.28C114.437 96.28 115.517 94.02 116.077 91.54L118.257 93.3C117.197 96.74 115.357 99.02 112.277 99.02C110.057 99.02 109.037 97.68 108.937 96.24C108.877 95.16 108.877 93.54 108.817 92.72C108.757 92.02 108.377 91.6 107.657 91.6C106.297 91.6 105.157 93 104.457 94.62C103.917 95.78 103.237 98.02 102.937 99.08L100.117 98.12C101.577 94.12 105.677 85.96 106.757 84.04C106.997 83.52 107.377 82.86 107.737 82.02L110.577 83.16ZM121.837 80.98H128.457V83.14H124.197V93.76H121.837V80.98ZM133.715 98V86.1055H129.467V83.6836H140.844V86.1055H136.605V98H133.715ZM144.75 98L141.332 83.6836H144.291L146.449 93.5176L149.066 83.6836H152.504L155.014 93.6836L157.211 83.6836H160.121L156.645 98H153.578L150.727 87.2969L147.885 98H144.75ZM161.518 98V83.6836H164.408V98H161.518ZM170.395 98V86.1055H166.146V83.6836H177.523V86.1055H173.285V98H170.395ZM182.621 98V86.1055H178.373V83.6836H189.75V86.1055H185.512V98H182.621ZM191.625 98V83.6836H202.24V86.1055H194.516V89.2793H201.703V91.6914H194.516V95.5879H202.514V98H191.625ZM204.975 98V83.6836H211.059C212.589 83.6836 213.699 83.8138 214.389 84.0742C215.085 84.3281 215.642 84.7839 216.059 85.4414C216.475 86.099 216.684 86.8509 216.684 87.6973C216.684 88.7715 216.368 89.6602 215.736 90.3633C215.105 91.0599 214.161 91.4993 212.904 91.6816C213.529 92.0462 214.044 92.4466 214.447 92.8828C214.857 93.319 215.408 94.0938 216.098 95.207L217.846 98H214.389L212.299 94.8848C211.557 93.7715 211.049 93.0716 210.775 92.7852C210.502 92.4922 210.212 92.2936 209.906 92.1895C209.6 92.0788 209.115 92.0234 208.451 92.0234H207.865V98H204.975ZM207.865 89.7383H210.004C211.391 89.7383 212.257 89.6797 212.602 89.5625C212.947 89.4453 213.217 89.2435 213.412 88.957C213.607 88.6706 213.705 88.3125 213.705 87.8828C213.705 87.401 213.575 87.0137 213.314 86.7207C213.061 86.4212 212.699 86.2324 212.23 86.1543C211.996 86.1217 211.293 86.1055 210.121 86.1055H207.865V89.7383ZM221.363 81.12H223.163V85.88H221.363V81.12ZM220.203 84.64H225.423V92.16H220.203V90.28H223.803V86.52H220.203V84.64ZM219.163 84.64H220.763V93.06H219.163V84.64ZM221.583 85.7H222.943V91.44H223.163V96.58H221.363V91.44H221.583V85.7ZM218.523 96.18C220.163 95.96 222.503 95.56 224.823 95.16L224.983 97.08C222.863 97.5 220.623 97.9 218.863 98.24L218.523 96.18ZM223.443 93.38L225.023 92.98C225.523 94.48 225.903 96.44 225.983 97.74L224.303 98.18C224.243 96.9 223.883 94.92 223.443 93.38ZM231.823 82.28H233.683V98.48H231.823V82.28ZM226.283 81.82H228.143V84.84H230.003V86.56H226.283V81.82ZM227.223 81.82H236.743V86.56H232.883V84.84H234.823V83.54H227.223V81.82ZM229.203 82.28H231.063V96.72C231.063 97.68 231.183 97.84 232.043 97.84C232.443 97.84 234.403 97.84 234.863 97.84C235.503 97.84 235.623 97.54 235.723 96.44C236.143 96.74 236.863 97.02 237.403 97.14C237.163 98.92 236.603 99.52 235.003 99.52C234.543 99.52 232.263 99.52 231.803 99.52C229.763 99.52 229.203 98.96 229.203 96.7V82.28ZM226.863 91.02H230.083V92.76H226.863V91.02ZM227.183 94.34H230.203V96.16H227.183V94.34ZM232.883 91.02H235.963V92.76H232.883V91.02ZM232.483 87.7H236.923V96.16H232.483V94.34H234.983V89.52H232.483V87.7ZM226.083 87.7H230.163V89.54H227.963V97.08H226.083V87.7ZM239.083 86.4H256.883V88.88H239.083V86.4ZM249.343 87.4C250.543 91.98 253.083 95.78 257.323 97.46C256.723 98 255.923 99.04 255.523 99.74C250.943 97.6 248.443 93.46 246.923 87.96L249.343 87.4ZM246.583 81.02H249.223C249.123 87.12 249.083 95.6 240.503 99.74C240.123 99.08 239.383 98.22 238.683 97.7C246.883 94.04 246.523 86.44 246.583 81.02ZM261.523 92H267.803V93.62H261.523V92ZM261.523 94.48H267.803V96.1H261.523V94.48ZM261.043 82.7H268.103V84.56H261.043V82.7ZM258.643 85.98H268.363V87.92H258.643V85.98ZM261.523 96.96H268.403V98.74H261.523V96.96ZM263.803 90.36H265.883V97.76H263.803V90.36ZM262.343 89.42H268.003V91.16H262.343V99.78H260.243V91.36L262.063 89.42H262.343ZM264.463 87.86L266.623 88.24C266.203 89.16 265.763 90.06 265.443 90.66L263.623 90.3C263.923 89.6 264.283 88.58 264.463 87.86ZM260.703 81L262.803 81.5C262.283 83.28 261.323 85.1 260.363 86.24C259.963 85.9 259.043 85.32 258.543 85.04C259.503 84.06 260.263 82.52 260.703 81ZM262.543 83.82L264.603 84.28C263.583 87.96 261.823 91.42 259.523 93.6C259.303 93.1 258.643 92.08 258.263 91.62C260.223 89.84 261.723 86.94 262.543 83.82ZM270.063 84.6H275.703V86.78H270.063V84.6ZM272.483 85.48H273.643V88.92C273.623 90.88 274.323 95.26 277.503 97.68C277.083 98.2 276.403 99.2 276.063 99.78C273.783 98.08 272.703 94.68 272.483 93C272.223 94.72 270.983 98.02 268.463 99.78C268.203 99.26 267.523 98.24 267.123 97.78C270.603 95.36 271.303 90.94 271.303 88.92V85.48H272.483ZM269.743 81L272.003 81.32C271.563 84.86 270.703 88.22 269.403 90.36C268.983 90.04 267.923 89.48 267.363 89.22C268.663 87.32 269.383 84.2 269.743 81ZM275.043 84.6H275.383L275.723 84.52L277.323 84.92C277.083 86.86 276.703 89.1 276.343 90.54L274.443 90C274.683 88.7 274.943 86.6 275.043 84.96V84.6ZM283.003 88.82V96.18H280.763V91.04H278.683V88.82H283.003ZM283.003 95.26C283.783 96.62 285.243 97.2 287.303 97.3C289.783 97.4 294.703 97.34 297.543 97.12C297.283 97.64 296.923 98.7 296.823 99.36C294.263 99.48 289.823 99.52 287.323 99.42C284.883 99.32 283.243 98.72 282.043 97.16C281.283 97.96 280.483 98.72 279.543 99.62L278.403 97.32C279.203 96.76 280.163 96 281.003 95.26H283.003ZM278.563 82.64L280.443 81.46C281.503 82.4 282.743 83.76 283.283 84.76L281.243 86.1C280.783 85.12 279.583 83.66 278.563 82.64ZM290.063 82.24H295.583V84.26H292.243V96.7H290.063V82.24ZM284.643 82.42L286.843 83V93.32H284.643V82.42ZM294.363 82.24H296.583V92.44C296.583 93.42 296.403 93.98 295.783 94.34C295.163 94.68 294.323 94.7 293.163 94.7C293.063 94.12 292.783 93.22 292.483 92.7C293.163 92.72 293.843 92.72 294.063 92.7C294.283 92.7 294.363 92.62 294.363 92.4V82.24ZM288.463 81.02L290.123 82.8C288.823 83.56 287.283 84.22 285.983 84.68C285.863 84.2 285.543 83.44 285.263 82.98C286.403 82.46 287.683 81.68 288.463 81.02ZM283.483 92.7C285.003 92.38 287.223 91.86 289.363 91.3L289.623 93.34C287.763 93.86 285.723 94.4 284.103 94.82L283.483 92.7ZM305.143 99.84H298.523V97.68H302.783V87.06H305.143V99.84Z" fill="black"/>
</svg>
