<svg width="351" height="372" viewBox="0 0 351 372" fill="none" xmlns="http://www.w3.org/2000/svg">
<rect x="7.5" y="48.5" width="336" height="316" rx="158" fill="black" stroke="black" stroke-width="15"/>
<rect x="7.5" y="7.5" width="336" height="316" rx="158" fill="white" stroke="black" stroke-width="15"/>
<path d="M221.04 252.436L178.026 189.94L171.9 181.044L121.987 108.525H143.457L183.823 167.173L189.948 176.069L242.51 252.436H221.04ZM251.386 246.331L197.209 167.623L191.084 158.721L152.329 102.419L149.117 97.7527H101.496L113.11 114.629L164.639 189.499L170.764 198.391L212.167 258.547L215.379 263.208H263L251.386 246.331Z" fill="black"/>
<path d="M172.086 181.044L178.212 189.94L170.95 198.391L115.235 263.208H101.496L164.825 189.499L172.086 181.044Z" fill="black"/>
<path d="M257.452 97.7525L197.394 167.623L190.133 176.069L184.008 167.172L191.269 158.721L231.952 111.369L243.713 97.7525H257.452Z" fill="black"/>
</svg>
