<svg width="737" height="216" viewBox="0 0 737 216" fill="none" xmlns="http://www.w3.org/2000/svg">
<mask id="path-1-outside-1_14_6" maskUnits="userSpaceOnUse" x="0" y="21" width="737" height="195" fill="black">
<rect fill="white" y="21" width="737" height="195"/>
<path d="M49.2934 38.7262C49.3724 37.547 49.6094 36.4464 50.0044 35.4244C50.3995 34.4024 51.071 33.4983 52.0191 32.7122C53.0462 31.8474 54.3893 31.1792 56.0485 30.7075C57.7076 30.2358 59.8013 30 62.3295 30C64.3837 30 66.0428 30.6682 67.3069 32.0047C68.571 33.2625 69.2031 35.1492 69.2031 37.6649L68.255 54.6456C73.3904 55.2745 77.4593 56.1785 80.4615 57.3578C83.4638 58.537 84.9649 60.0306 84.9649 61.8388C84.9649 62.5463 84.8464 63.4111 84.6094 64.433C84.3723 65.3764 83.7403 66.9487 82.7132 69.1499C81.6071 71.1939 80.422 72.7268 79.1579 73.7488C77.9728 74.6922 76.3532 75.1639 74.299 75.1639H67.1884L65.7663 101.932C70.0326 104.684 74.4175 107.71 78.9209 111.012C83.5033 114.235 87.6116 117.734 91.2459 121.507C94.9592 125.28 98.001 129.29 100.371 133.535C102.741 137.702 103.926 142.065 103.926 146.624C103.926 151.734 102.741 156.254 100.371 160.185C98.001 164.037 94.9592 167.26 91.2459 169.855C87.6116 172.449 83.5428 174.414 79.0394 175.751C74.615 177.087 70.2697 177.755 66.0033 177.755C65.2922 177.755 64.5812 177.755 63.8701 177.755C63.1591 177.755 62.4085 177.677 61.6184 177.52L60.6703 198.274C60.5913 199.453 60.3543 200.554 59.9593 201.576C59.5643 202.598 58.8927 203.502 57.9446 204.288C56.9965 205.153 55.6534 205.821 53.9153 206.292C52.2561 206.764 50.123 207 47.5157 207C45.4616 207 43.8024 206.332 42.5383 204.995C41.3532 203.659 40.7607 201.733 40.7607 199.217L42.1828 172.921C37.8374 171.113 33.7291 168.872 29.8578 166.199C25.9864 163.526 22.5891 160.5 19.6659 157.119C16.8217 153.66 14.57 149.926 12.9108 145.917C11.2517 141.907 10.4221 137.702 10.4221 133.299C10.4221 131.57 10.5406 129.84 10.7776 128.111C11.0147 126.302 11.4492 124.691 12.0813 123.276C12.7923 121.861 13.7009 120.721 14.807 119.856C15.9131 118.991 17.3747 118.559 19.1919 118.559C19.8239 118.559 20.377 118.638 20.851 118.795C21.404 118.873 21.9966 118.991 22.6286 119.149L24.7618 119.856C25.6309 120.013 26.5395 120.367 27.4876 120.917C28.4356 121.389 29.3047 121.979 30.0948 122.686C30.8848 123.394 31.5169 124.219 31.9909 125.163C32.544 126.106 32.8205 127.128 32.8205 128.229C32.8205 132.395 33.7686 136.247 35.6647 139.785C37.5609 143.244 40.1681 146.31 43.4864 148.983L45.1455 115.021C40.3261 111.955 35.7438 109.047 31.3984 106.295C27.053 103.544 23.2212 100.831 19.9029 98.1586C16.5846 95.4071 13.9379 92.6556 11.9627 89.9041C9.98758 87.1526 9 84.1652 9 80.942C9 77.1686 10.1851 73.7881 12.5553 70.8008C15.0045 67.7348 18.1253 65.1013 21.9176 62.9001C25.7099 60.6203 29.9368 58.7728 34.5982 57.3578C39.2595 55.9427 43.8419 54.96 48.3453 54.4097L49.2934 38.7262ZM62.8035 157.709C63.9096 157.866 65.0157 157.984 66.1218 158.063C67.2279 158.141 68.334 158.181 69.4401 158.181C70.8622 158.181 72.2843 158.063 73.7064 157.827C75.2076 157.512 76.5507 157.08 77.7358 156.53C78.9999 155.901 80.027 155.075 80.817 154.053C81.6071 153.031 82.0021 151.773 82.0021 150.28C82.0021 148.708 81.4886 146.939 80.4615 144.973C79.5134 142.929 78.2098 140.885 76.5507 138.841C74.9706 136.719 73.1139 134.675 70.9807 132.71C68.8475 130.744 66.6353 129.015 64.3442 127.521L62.8035 157.709ZM35.1907 79.7628C35.1907 80.7848 35.5462 81.8068 36.2573 82.8288C36.9684 83.7722 37.8769 84.7155 38.983 85.6589C40.0891 86.5236 41.3137 87.3491 42.6568 88.1352C43.9999 88.9214 45.3036 89.6682 46.5677 90.3757L47.2787 73.1592C45.7776 73.3165 44.2765 73.5523 42.7753 73.8668C41.3532 74.1026 40.0891 74.4957 38.983 75.046C37.8769 75.5177 36.9684 76.1466 36.2573 76.9327C35.5462 77.6402 35.1907 78.5836 35.1907 79.7628Z"/>
<path d="M228.48 112.545C227.532 112.545 226.703 113.292 225.992 114.785C222.99 120.603 219.79 125.87 216.392 130.587C213.074 135.304 209.716 139.313 206.319 142.615C202.922 145.917 199.564 148.472 196.246 150.28C192.927 152.009 189.807 152.874 186.883 152.874C184.039 152.874 181.393 152.284 178.943 151.105C176.573 149.847 173.966 147.528 171.122 144.148C168.356 140.767 165.157 136.09 161.522 130.115C157.967 124.141 153.582 116.358 148.368 106.767C147.499 105.195 146.59 104.055 145.642 103.347C144.773 102.561 143.983 102.168 143.272 102.168C142.245 102.168 141.297 103.268 140.428 105.47C139.558 107.592 138.808 110.619 138.176 114.55C137.544 118.402 137.03 123.079 136.635 128.582C136.319 134.007 136.161 140.021 136.161 146.624C136.161 150.555 136.359 154.486 136.754 158.416C137.228 162.347 137.465 166.396 137.465 170.562C137.465 171.977 137.07 173.314 136.28 174.572C135.49 175.751 134.423 176.773 133.08 177.638C131.816 178.581 130.275 179.328 128.458 179.878C126.72 180.428 124.863 180.704 122.888 180.704C118.938 180.704 116.094 178.345 114.355 173.628C112.617 168.911 111.748 161.364 111.748 150.987C111.748 137.859 112.459 125.949 113.881 115.257C115.382 104.487 117.476 95.2891 120.162 87.6636C122.928 79.9594 126.167 74.024 129.88 69.8574C133.672 65.6123 137.899 63.4897 142.561 63.4897C146.669 63.4897 150.58 65.8481 154.293 70.565C158.086 75.2032 162.154 82.7502 166.5 93.2059C168.238 97.451 170.095 101.421 172.07 105.116C174.124 108.811 176.139 112.034 178.114 114.785C180.168 117.458 182.143 119.581 184.039 121.153C185.935 122.647 187.634 123.394 189.135 123.394C190.636 123.394 192.058 123.079 193.402 122.45C194.824 121.743 196.404 120.288 198.142 118.087C199.959 115.807 202.053 112.506 204.423 108.182C206.872 103.858 209.874 98.0799 213.43 90.8474C215.326 87.0739 217.025 83.9294 218.526 81.4137C220.027 78.8981 221.528 76.8934 223.029 75.3997C224.53 73.8274 226.11 72.7268 227.769 72.0979C229.429 71.3904 231.285 71.0366 233.339 71.0366C235.789 71.0366 238.198 72.3338 240.568 74.928C242.939 77.5223 245.23 80.9813 247.442 85.3051C249.733 89.6289 251.945 94.6602 254.079 100.399C256.212 106.138 258.266 112.152 260.241 118.441C262.295 124.73 264.27 131.137 266.167 137.662C268.142 144.109 270.038 150.241 271.855 156.058C272.329 157.787 272.645 159.006 272.803 159.714C273.04 160.342 273.159 161.129 273.159 162.072C273.159 163.408 272.724 164.745 271.855 166.081C271.065 167.339 269.998 168.479 268.655 169.501C267.312 170.523 265.772 171.348 264.033 171.977C262.374 172.606 260.715 172.921 259.056 172.921C256.844 172.921 255.106 172.685 253.842 172.213C252.656 171.663 251.708 170.72 250.997 169.383C250.602 168.676 249.931 166.789 248.983 163.723C248.035 160.657 246.889 157.041 245.546 152.874C244.282 148.629 242.86 144.148 241.28 139.431C239.778 134.714 238.238 130.39 236.658 126.46C235.157 122.45 233.695 119.149 232.273 116.554C230.851 113.881 229.587 112.545 228.48 112.545Z"/>
<path d="M337.984 191.552C329.372 191.552 321.432 190.098 314.163 187.189C306.974 184.28 300.772 180.232 295.557 175.043C290.343 169.776 286.274 163.526 283.351 156.294C280.427 149.061 278.966 141.082 278.966 132.356C278.966 127.639 279.361 123.119 280.151 118.795C281.02 114.392 282.165 110.304 283.588 106.531C284.22 105.037 284.536 103.976 284.536 103.347C284.536 102.561 284.338 101.814 283.943 101.107C283.548 100.399 283.114 99.6522 282.64 98.8661C282.165 98.0799 281.731 97.2545 281.336 96.3897C280.941 95.525 280.743 94.5423 280.743 93.4417C280.743 90.1399 282.64 86.9167 286.432 83.7722C290.224 80.549 295.241 77.7189 301.483 75.2818C307.724 72.7662 314.795 70.7615 322.696 69.2678C330.597 67.6955 338.695 66.9094 346.99 66.9094C357.182 66.9094 366.347 68.2065 374.485 70.8008C382.701 73.3951 389.654 77.1292 395.343 82.0033C401.11 86.7988 405.534 92.6556 408.616 99.5736C411.697 106.492 413.238 114.274 413.238 122.922C413.238 132.592 411.302 141.632 407.431 150.044C403.559 158.377 398.226 165.61 391.432 171.742C384.716 177.873 376.776 182.708 367.611 186.246C358.446 189.783 348.571 191.552 337.984 191.552ZM389.417 127.521C389.417 121.389 388.35 115.886 386.217 111.012C384.084 106.138 381.003 102.05 376.973 98.7482C372.944 95.3678 367.967 92.8128 362.041 91.0833C356.195 89.2751 349.558 88.3711 342.132 88.3711C329.095 88.3711 319.259 91.6729 312.623 98.2765C306.065 104.801 302.786 114.55 302.786 127.521C302.786 133.81 303.774 139.588 305.749 144.855C307.724 150.044 310.489 154.525 314.045 158.298C317.6 161.993 321.827 164.902 326.725 167.025C331.703 169.069 337.154 170.091 343.08 170.091C349.874 170.091 356.116 169.069 361.804 167.025C367.493 164.902 372.352 161.954 376.381 158.181C380.489 154.407 383.689 149.926 385.98 144.738C388.271 139.47 389.417 133.732 389.417 127.521Z"/>
<path d="M543.243 112.545C542.295 112.545 541.465 113.292 540.754 114.785C537.752 120.603 534.552 125.87 531.155 130.587C527.837 135.304 524.479 139.313 521.082 142.615C517.684 145.917 514.327 148.472 511.008 150.28C507.69 152.009 504.569 152.874 501.646 152.874C498.802 152.874 496.155 152.284 493.706 151.105C491.336 149.847 488.728 147.528 485.884 144.148C483.119 140.767 479.919 136.09 476.285 130.115C472.73 124.141 468.345 116.358 463.13 106.767C462.261 105.195 461.353 104.055 460.404 103.347C459.535 102.561 458.745 102.168 458.034 102.168C457.007 102.168 456.059 103.268 455.19 105.47C454.321 107.592 453.57 110.619 452.938 114.55C452.306 118.402 451.793 123.079 451.398 128.582C451.082 134.007 450.924 140.021 450.924 146.624C450.924 150.555 451.121 154.486 451.516 158.416C451.99 162.347 452.227 166.396 452.227 170.562C452.227 171.977 451.832 173.314 451.042 174.572C450.252 175.751 449.186 176.773 447.842 177.638C446.578 178.581 445.038 179.328 443.221 179.878C441.482 180.428 439.626 180.704 437.651 180.704C433.7 180.704 430.856 178.345 429.118 173.628C427.38 168.911 426.511 161.364 426.511 150.987C426.511 137.859 427.222 125.949 428.644 115.257C430.145 104.487 432.239 95.2891 434.925 87.6636C437.69 79.9594 440.929 74.024 444.643 69.8574C448.435 65.6123 452.662 63.4897 457.323 63.4897C461.432 63.4897 465.342 65.8481 469.056 70.565C472.848 75.2032 476.917 82.7502 481.262 93.2059C483 97.451 484.857 101.421 486.832 105.116C488.886 108.811 490.901 112.034 492.876 114.785C494.93 117.458 496.906 119.581 498.802 121.153C500.698 122.647 502.397 123.394 503.898 123.394C505.399 123.394 506.821 123.079 508.164 122.45C509.586 121.743 511.166 120.288 512.904 118.087C514.722 115.807 516.815 112.506 519.185 108.182C521.635 103.858 524.637 98.0799 528.192 90.8474C530.088 87.0739 531.787 83.9294 533.288 81.4137C534.789 78.8981 536.29 76.8934 537.791 75.3997C539.293 73.8274 540.873 72.7268 542.532 72.0979C544.191 71.3904 546.048 71.0366 548.102 71.0366C550.551 71.0366 552.961 72.3338 555.331 74.928C557.701 77.5223 559.992 80.9813 562.205 85.3051C564.496 89.6289 566.708 94.6602 568.841 100.399C570.974 106.138 573.028 112.152 575.004 118.441C577.058 124.73 579.033 131.137 580.929 137.662C582.904 144.109 584.8 150.241 586.618 156.058C587.092 157.787 587.408 159.006 587.566 159.714C587.803 160.342 587.921 161.129 587.921 162.072C587.921 163.408 587.487 164.745 586.618 166.081C585.828 167.339 584.761 168.479 583.418 169.501C582.075 170.523 580.534 171.348 578.796 171.977C577.137 172.606 575.478 172.921 573.819 172.921C571.606 172.921 569.868 172.685 568.604 172.213C567.419 171.663 566.471 170.72 565.76 169.383C565.365 168.676 564.693 166.789 563.745 163.723C562.797 160.657 561.651 157.041 560.308 152.874C559.044 148.629 557.622 144.148 556.042 139.431C554.541 134.714 553 130.39 551.42 126.46C549.919 122.45 548.457 119.149 547.035 116.554C545.613 113.881 544.349 112.545 543.243 112.545Z"/>
<path d="M652.746 191.552C644.134 191.552 636.194 190.098 628.926 187.189C621.736 184.28 615.534 180.232 610.32 175.043C605.105 169.776 601.036 163.526 598.113 156.294C595.19 149.061 593.728 141.082 593.728 132.356C593.728 127.639 594.123 123.119 594.913 118.795C595.782 114.392 596.928 110.304 598.35 106.531C598.982 105.037 599.298 103.976 599.298 103.347C599.298 102.561 599.101 101.814 598.706 101.107C598.311 100.399 597.876 99.6522 597.402 98.8661C596.928 98.0799 596.493 97.2545 596.098 96.3897C595.703 95.525 595.506 94.5423 595.506 93.4417C595.506 90.1399 597.402 86.9167 601.194 83.7722C604.987 80.549 610.004 77.7189 616.245 75.2818C622.487 72.7662 629.558 70.7615 637.458 69.2678C645.359 67.6955 653.457 66.9094 661.753 66.9094C671.945 66.9094 681.11 68.2065 689.247 70.8008C697.464 73.3951 704.417 77.1292 710.105 82.0033C715.872 86.7988 720.297 92.6556 723.378 99.5736C726.459 106.492 728 114.274 728 122.922C728 132.592 726.064 141.632 722.193 150.044C718.322 158.377 712.989 165.61 706.194 171.742C699.479 177.873 691.538 182.708 682.374 186.246C673.209 189.783 663.333 191.552 652.746 191.552ZM704.179 127.521C704.179 121.389 703.113 115.886 700.98 111.012C698.847 106.138 695.765 102.05 691.736 98.7482C687.707 95.3678 682.729 92.8128 676.804 91.0833C670.957 89.2751 664.321 88.3711 656.894 88.3711C643.858 88.3711 634.022 91.6729 627.385 98.2765C620.827 104.801 617.549 114.55 617.549 127.521C617.549 133.81 618.536 139.588 620.511 144.855C622.487 150.044 625.252 154.525 628.807 158.298C632.362 161.993 636.589 164.902 641.488 167.025C646.465 169.069 651.917 170.091 657.842 170.091C664.637 170.091 670.878 169.069 676.567 167.025C682.255 164.902 687.114 161.954 691.143 158.181C695.252 154.407 698.452 149.926 700.743 144.738C703.034 139.47 704.179 133.732 704.179 127.521Z"/>
</mask>
<path d="M49.2934 38.7262C49.3724 37.547 49.6094 36.4464 50.0044 35.4244C50.3995 34.4024 51.071 33.4983 52.0191 32.7122C53.0462 31.8474 54.3893 31.1792 56.0485 30.7075C57.7076 30.2358 59.8013 30 62.3295 30C64.3837 30 66.0428 30.6682 67.3069 32.0047C68.571 33.2625 69.2031 35.1492 69.2031 37.6649L68.255 54.6456C73.3904 55.2745 77.4593 56.1785 80.4615 57.3578C83.4638 58.537 84.9649 60.0306 84.9649 61.8388C84.9649 62.5463 84.8464 63.4111 84.6094 64.433C84.3723 65.3764 83.7403 66.9487 82.7132 69.1499C81.6071 71.1939 80.422 72.7268 79.1579 73.7488C77.9728 74.6922 76.3532 75.1639 74.299 75.1639H67.1884L65.7663 101.932C70.0326 104.684 74.4175 107.71 78.9209 111.012C83.5033 114.235 87.6116 117.734 91.2459 121.507C94.9592 125.28 98.001 129.29 100.371 133.535C102.741 137.702 103.926 142.065 103.926 146.624C103.926 151.734 102.741 156.254 100.371 160.185C98.001 164.037 94.9592 167.26 91.2459 169.855C87.6116 172.449 83.5428 174.414 79.0394 175.751C74.615 177.087 70.2697 177.755 66.0033 177.755C65.2922 177.755 64.5812 177.755 63.8701 177.755C63.1591 177.755 62.4085 177.677 61.6184 177.52L60.6703 198.274C60.5913 199.453 60.3543 200.554 59.9593 201.576C59.5643 202.598 58.8927 203.502 57.9446 204.288C56.9965 205.153 55.6534 205.821 53.9153 206.292C52.2561 206.764 50.123 207 47.5157 207C45.4616 207 43.8024 206.332 42.5383 204.995C41.3532 203.659 40.7607 201.733 40.7607 199.217L42.1828 172.921C37.8374 171.113 33.7291 168.872 29.8578 166.199C25.9864 163.526 22.5891 160.5 19.6659 157.119C16.8217 153.66 14.57 149.926 12.9108 145.917C11.2517 141.907 10.4221 137.702 10.4221 133.299C10.4221 131.57 10.5406 129.84 10.7776 128.111C11.0147 126.302 11.4492 124.691 12.0813 123.276C12.7923 121.861 13.7009 120.721 14.807 119.856C15.9131 118.991 17.3747 118.559 19.1919 118.559C19.8239 118.559 20.377 118.638 20.851 118.795C21.404 118.873 21.9966 118.991 22.6286 119.149L24.7618 119.856C25.6309 120.013 26.5395 120.367 27.4876 120.917C28.4356 121.389 29.3047 121.979 30.0948 122.686C30.8848 123.394 31.5169 124.219 31.9909 125.163C32.544 126.106 32.8205 127.128 32.8205 128.229C32.8205 132.395 33.7686 136.247 35.6647 139.785C37.5609 143.244 40.1681 146.31 43.4864 148.983L45.1455 115.021C40.3261 111.955 35.7438 109.047 31.3984 106.295C27.053 103.544 23.2212 100.831 19.9029 98.1586C16.5846 95.4071 13.9379 92.6556 11.9627 89.9041C9.98758 87.1526 9 84.1652 9 80.942C9 77.1686 10.1851 73.7881 12.5553 70.8008C15.0045 67.7348 18.1253 65.1013 21.9176 62.9001C25.7099 60.6203 29.9368 58.7728 34.5982 57.3578C39.2595 55.9427 43.8419 54.96 48.3453 54.4097L49.2934 38.7262ZM62.8035 157.709C63.9096 157.866 65.0157 157.984 66.1218 158.063C67.2279 158.141 68.334 158.181 69.4401 158.181C70.8622 158.181 72.2843 158.063 73.7064 157.827C75.2076 157.512 76.5507 157.08 77.7358 156.53C78.9999 155.901 80.027 155.075 80.817 154.053C81.6071 153.031 82.0021 151.773 82.0021 150.28C82.0021 148.708 81.4886 146.939 80.4615 144.973C79.5134 142.929 78.2098 140.885 76.5507 138.841C74.9706 136.719 73.1139 134.675 70.9807 132.71C68.8475 130.744 66.6353 129.015 64.3442 127.521L62.8035 157.709ZM35.1907 79.7628C35.1907 80.7848 35.5462 81.8068 36.2573 82.8288C36.9684 83.7722 37.8769 84.7155 38.983 85.6589C40.0891 86.5236 41.3137 87.3491 42.6568 88.1352C43.9999 88.9214 45.3036 89.6682 46.5677 90.3757L47.2787 73.1592C45.7776 73.3165 44.2765 73.5523 42.7753 73.8668C41.3532 74.1026 40.0891 74.4957 38.983 75.046C37.8769 75.5177 36.9684 76.1466 36.2573 76.9327C35.5462 77.6402 35.1907 78.5836 35.1907 79.7628Z" fill="black"/>
<path d="M228.48 112.545C227.532 112.545 226.703 113.292 225.992 114.785C222.99 120.603 219.79 125.87 216.392 130.587C213.074 135.304 209.716 139.313 206.319 142.615C202.922 145.917 199.564 148.472 196.246 150.28C192.927 152.009 189.807 152.874 186.883 152.874C184.039 152.874 181.393 152.284 178.943 151.105C176.573 149.847 173.966 147.528 171.122 144.148C168.356 140.767 165.157 136.09 161.522 130.115C157.967 124.141 153.582 116.358 148.368 106.767C147.499 105.195 146.59 104.055 145.642 103.347C144.773 102.561 143.983 102.168 143.272 102.168C142.245 102.168 141.297 103.268 140.428 105.47C139.558 107.592 138.808 110.619 138.176 114.55C137.544 118.402 137.03 123.079 136.635 128.582C136.319 134.007 136.161 140.021 136.161 146.624C136.161 150.555 136.359 154.486 136.754 158.416C137.228 162.347 137.465 166.396 137.465 170.562C137.465 171.977 137.07 173.314 136.28 174.572C135.49 175.751 134.423 176.773 133.08 177.638C131.816 178.581 130.275 179.328 128.458 179.878C126.72 180.428 124.863 180.704 122.888 180.704C118.938 180.704 116.094 178.345 114.355 173.628C112.617 168.911 111.748 161.364 111.748 150.987C111.748 137.859 112.459 125.949 113.881 115.257C115.382 104.487 117.476 95.2891 120.162 87.6636C122.928 79.9594 126.167 74.024 129.88 69.8574C133.672 65.6123 137.899 63.4897 142.561 63.4897C146.669 63.4897 150.58 65.8481 154.293 70.565C158.086 75.2032 162.154 82.7502 166.5 93.2059C168.238 97.451 170.095 101.421 172.07 105.116C174.124 108.811 176.139 112.034 178.114 114.785C180.168 117.458 182.143 119.581 184.039 121.153C185.935 122.647 187.634 123.394 189.135 123.394C190.636 123.394 192.058 123.079 193.402 122.45C194.824 121.743 196.404 120.288 198.142 118.087C199.959 115.807 202.053 112.506 204.423 108.182C206.872 103.858 209.874 98.0799 213.43 90.8474C215.326 87.0739 217.025 83.9294 218.526 81.4137C220.027 78.8981 221.528 76.8934 223.029 75.3997C224.53 73.8274 226.11 72.7268 227.769 72.0979C229.429 71.3904 231.285 71.0366 233.339 71.0366C235.789 71.0366 238.198 72.3338 240.568 74.928C242.939 77.5223 245.23 80.9813 247.442 85.3051C249.733 89.6289 251.945 94.6602 254.079 100.399C256.212 106.138 258.266 112.152 260.241 118.441C262.295 124.73 264.27 131.137 266.167 137.662C268.142 144.109 270.038 150.241 271.855 156.058C272.329 157.787 272.645 159.006 272.803 159.714C273.04 160.342 273.159 161.129 273.159 162.072C273.159 163.408 272.724 164.745 271.855 166.081C271.065 167.339 269.998 168.479 268.655 169.501C267.312 170.523 265.772 171.348 264.033 171.977C262.374 172.606 260.715 172.921 259.056 172.921C256.844 172.921 255.106 172.685 253.842 172.213C252.656 171.663 251.708 170.72 250.997 169.383C250.602 168.676 249.931 166.789 248.983 163.723C248.035 160.657 246.889 157.041 245.546 152.874C244.282 148.629 242.86 144.148 241.28 139.431C239.778 134.714 238.238 130.39 236.658 126.46C235.157 122.45 233.695 119.149 232.273 116.554C230.851 113.881 229.587 112.545 228.48 112.545Z" fill="black"/>
<path d="M337.984 191.552C329.372 191.552 321.432 190.098 314.163 187.189C306.974 184.28 300.772 180.232 295.557 175.043C290.343 169.776 286.274 163.526 283.351 156.294C280.427 149.061 278.966 141.082 278.966 132.356C278.966 127.639 279.361 123.119 280.151 118.795C281.02 114.392 282.165 110.304 283.588 106.531C284.22 105.037 284.536 103.976 284.536 103.347C284.536 102.561 284.338 101.814 283.943 101.107C283.548 100.399 283.114 99.6522 282.64 98.8661C282.165 98.0799 281.731 97.2545 281.336 96.3897C280.941 95.525 280.743 94.5423 280.743 93.4417C280.743 90.1399 282.64 86.9167 286.432 83.7722C290.224 80.549 295.241 77.7189 301.483 75.2818C307.724 72.7662 314.795 70.7615 322.696 69.2678C330.597 67.6955 338.695 66.9094 346.99 66.9094C357.182 66.9094 366.347 68.2065 374.485 70.8008C382.701 73.3951 389.654 77.1292 395.343 82.0033C401.11 86.7988 405.534 92.6556 408.616 99.5736C411.697 106.492 413.238 114.274 413.238 122.922C413.238 132.592 411.302 141.632 407.431 150.044C403.559 158.377 398.226 165.61 391.432 171.742C384.716 177.873 376.776 182.708 367.611 186.246C358.446 189.783 348.571 191.552 337.984 191.552ZM389.417 127.521C389.417 121.389 388.35 115.886 386.217 111.012C384.084 106.138 381.003 102.05 376.973 98.7482C372.944 95.3678 367.967 92.8128 362.041 91.0833C356.195 89.2751 349.558 88.3711 342.132 88.3711C329.095 88.3711 319.259 91.6729 312.623 98.2765C306.065 104.801 302.786 114.55 302.786 127.521C302.786 133.81 303.774 139.588 305.749 144.855C307.724 150.044 310.489 154.525 314.045 158.298C317.6 161.993 321.827 164.902 326.725 167.025C331.703 169.069 337.154 170.091 343.08 170.091C349.874 170.091 356.116 169.069 361.804 167.025C367.493 164.902 372.352 161.954 376.381 158.181C380.489 154.407 383.689 149.926 385.98 144.738C388.271 139.47 389.417 133.732 389.417 127.521Z" fill="black"/>
<path d="M543.243 112.545C542.295 112.545 541.465 113.292 540.754 114.785C537.752 120.603 534.552 125.87 531.155 130.587C527.837 135.304 524.479 139.313 521.082 142.615C517.684 145.917 514.327 148.472 511.008 150.28C507.69 152.009 504.569 152.874 501.646 152.874C498.802 152.874 496.155 152.284 493.706 151.105C491.336 149.847 488.728 147.528 485.884 144.148C483.119 140.767 479.919 136.09 476.285 130.115C472.73 124.141 468.345 116.358 463.13 106.767C462.261 105.195 461.353 104.055 460.404 103.347C459.535 102.561 458.745 102.168 458.034 102.168C457.007 102.168 456.059 103.268 455.19 105.47C454.321 107.592 453.57 110.619 452.938 114.55C452.306 118.402 451.793 123.079 451.398 128.582C451.082 134.007 450.924 140.021 450.924 146.624C450.924 150.555 451.121 154.486 451.516 158.416C451.99 162.347 452.227 166.396 452.227 170.562C452.227 171.977 451.832 173.314 451.042 174.572C450.252 175.751 449.186 176.773 447.842 177.638C446.578 178.581 445.038 179.328 443.221 179.878C441.482 180.428 439.626 180.704 437.651 180.704C433.7 180.704 430.856 178.345 429.118 173.628C427.38 168.911 426.511 161.364 426.511 150.987C426.511 137.859 427.222 125.949 428.644 115.257C430.145 104.487 432.239 95.2891 434.925 87.6636C437.69 79.9594 440.929 74.024 444.643 69.8574C448.435 65.6123 452.662 63.4897 457.323 63.4897C461.432 63.4897 465.342 65.8481 469.056 70.565C472.848 75.2032 476.917 82.7502 481.262 93.2059C483 97.451 484.857 101.421 486.832 105.116C488.886 108.811 490.901 112.034 492.876 114.785C494.93 117.458 496.906 119.581 498.802 121.153C500.698 122.647 502.397 123.394 503.898 123.394C505.399 123.394 506.821 123.079 508.164 122.45C509.586 121.743 511.166 120.288 512.904 118.087C514.722 115.807 516.815 112.506 519.185 108.182C521.635 103.858 524.637 98.0799 528.192 90.8474C530.088 87.0739 531.787 83.9294 533.288 81.4137C534.789 78.8981 536.29 76.8934 537.791 75.3997C539.293 73.8274 540.873 72.7268 542.532 72.0979C544.191 71.3904 546.048 71.0366 548.102 71.0366C550.551 71.0366 552.961 72.3338 555.331 74.928C557.701 77.5223 559.992 80.9813 562.205 85.3051C564.496 89.6289 566.708 94.6602 568.841 100.399C570.974 106.138 573.028 112.152 575.004 118.441C577.058 124.73 579.033 131.137 580.929 137.662C582.904 144.109 584.8 150.241 586.618 156.058C587.092 157.787 587.408 159.006 587.566 159.714C587.803 160.342 587.921 161.129 587.921 162.072C587.921 163.408 587.487 164.745 586.618 166.081C585.828 167.339 584.761 168.479 583.418 169.501C582.075 170.523 580.534 171.348 578.796 171.977C577.137 172.606 575.478 172.921 573.819 172.921C571.606 172.921 569.868 172.685 568.604 172.213C567.419 171.663 566.471 170.72 565.76 169.383C565.365 168.676 564.693 166.789 563.745 163.723C562.797 160.657 561.651 157.041 560.308 152.874C559.044 148.629 557.622 144.148 556.042 139.431C554.541 134.714 553 130.39 551.42 126.46C549.919 122.45 548.457 119.149 547.035 116.554C545.613 113.881 544.349 112.545 543.243 112.545Z" fill="black"/>
<path d="M652.746 191.552C644.134 191.552 636.194 190.098 628.926 187.189C621.736 184.28 615.534 180.232 610.32 175.043C605.105 169.776 601.036 163.526 598.113 156.294C595.19 149.061 593.728 141.082 593.728 132.356C593.728 127.639 594.123 123.119 594.913 118.795C595.782 114.392 596.928 110.304 598.35 106.531C598.982 105.037 599.298 103.976 599.298 103.347C599.298 102.561 599.101 101.814 598.706 101.107C598.311 100.399 597.876 99.6522 597.402 98.8661C596.928 98.0799 596.493 97.2545 596.098 96.3897C595.703 95.525 595.506 94.5423 595.506 93.4417C595.506 90.1399 597.402 86.9167 601.194 83.7722C604.987 80.549 610.004 77.7189 616.245 75.2818C622.487 72.7662 629.558 70.7615 637.458 69.2678C645.359 67.6955 653.457 66.9094 661.753 66.9094C671.945 66.9094 681.11 68.2065 689.247 70.8008C697.464 73.3951 704.417 77.1292 710.105 82.0033C715.872 86.7988 720.297 92.6556 723.378 99.5736C726.459 106.492 728 114.274 728 122.922C728 132.592 726.064 141.632 722.193 150.044C718.322 158.377 712.989 165.61 706.194 171.742C699.479 177.873 691.538 182.708 682.374 186.246C673.209 189.783 663.333 191.552 652.746 191.552ZM704.179 127.521C704.179 121.389 703.113 115.886 700.98 111.012C698.847 106.138 695.765 102.05 691.736 98.7482C687.707 95.3678 682.729 92.8128 676.804 91.0833C670.957 89.2751 664.321 88.3711 656.894 88.3711C643.858 88.3711 634.022 91.6729 627.385 98.2765C620.827 104.801 617.549 114.55 617.549 127.521C617.549 133.81 618.536 139.588 620.511 144.855C622.487 150.044 625.252 154.525 628.807 158.298C632.362 161.993 636.589 164.902 641.488 167.025C646.465 169.069 651.917 170.091 657.842 170.091C664.637 170.091 670.878 169.069 676.567 167.025C682.255 164.902 687.114 161.954 691.143 158.181C695.252 154.407 698.452 149.926 700.743 144.738C703.034 139.47 704.179 133.732 704.179 127.521Z" fill="black"/>
<path d="M49.2934 38.7262C49.3724 37.547 49.6094 36.4464 50.0044 35.4244C50.3995 34.4024 51.071 33.4983 52.0191 32.7122C53.0462 31.8474 54.3893 31.1792 56.0485 30.7075C57.7076 30.2358 59.8013 30 62.3295 30C64.3837 30 66.0428 30.6682 67.3069 32.0047C68.571 33.2625 69.2031 35.1492 69.2031 37.6649L68.255 54.6456C73.3904 55.2745 77.4593 56.1785 80.4615 57.3578C83.4638 58.537 84.9649 60.0306 84.9649 61.8388C84.9649 62.5463 84.8464 63.4111 84.6094 64.433C84.3723 65.3764 83.7403 66.9487 82.7132 69.1499C81.6071 71.1939 80.422 72.7268 79.1579 73.7488C77.9728 74.6922 76.3532 75.1639 74.299 75.1639H67.1884L65.7663 101.932C70.0326 104.684 74.4175 107.71 78.9209 111.012C83.5033 114.235 87.6116 117.734 91.2459 121.507C94.9592 125.28 98.001 129.29 100.371 133.535C102.741 137.702 103.926 142.065 103.926 146.624C103.926 151.734 102.741 156.254 100.371 160.185C98.001 164.037 94.9592 167.26 91.2459 169.855C87.6116 172.449 83.5428 174.414 79.0394 175.751C74.615 177.087 70.2697 177.755 66.0033 177.755C65.2922 177.755 64.5812 177.755 63.8701 177.755C63.1591 177.755 62.4085 177.677 61.6184 177.52L60.6703 198.274C60.5913 199.453 60.3543 200.554 59.9593 201.576C59.5643 202.598 58.8927 203.502 57.9446 204.288C56.9965 205.153 55.6534 205.821 53.9153 206.292C52.2561 206.764 50.123 207 47.5157 207C45.4616 207 43.8024 206.332 42.5383 204.995C41.3532 203.659 40.7607 201.733 40.7607 199.217L42.1828 172.921C37.8374 171.113 33.7291 168.872 29.8578 166.199C25.9864 163.526 22.5891 160.5 19.6659 157.119C16.8217 153.66 14.57 149.926 12.9108 145.917C11.2517 141.907 10.4221 137.702 10.4221 133.299C10.4221 131.57 10.5406 129.84 10.7776 128.111C11.0147 126.302 11.4492 124.691 12.0813 123.276C12.7923 121.861 13.7009 120.721 14.807 119.856C15.9131 118.991 17.3747 118.559 19.1919 118.559C19.8239 118.559 20.377 118.638 20.851 118.795C21.404 118.873 21.9966 118.991 22.6286 119.149L24.7618 119.856C25.6309 120.013 26.5395 120.367 27.4876 120.917C28.4356 121.389 29.3047 121.979 30.0948 122.686C30.8848 123.394 31.5169 124.219 31.9909 125.163C32.544 126.106 32.8205 127.128 32.8205 128.229C32.8205 132.395 33.7686 136.247 35.6647 139.785C37.5609 143.244 40.1681 146.31 43.4864 148.983L45.1455 115.021C40.3261 111.955 35.7438 109.047 31.3984 106.295C27.053 103.544 23.2212 100.831 19.9029 98.1586C16.5846 95.4071 13.9379 92.6556 11.9627 89.9041C9.98758 87.1526 9 84.1652 9 80.942C9 77.1686 10.1851 73.7881 12.5553 70.8008C15.0045 67.7348 18.1253 65.1013 21.9176 62.9001C25.7099 60.6203 29.9368 58.7728 34.5982 57.3578C39.2595 55.9427 43.8419 54.96 48.3453 54.4097L49.2934 38.7262ZM62.8035 157.709C63.9096 157.866 65.0157 157.984 66.1218 158.063C67.2279 158.141 68.334 158.181 69.4401 158.181C70.8622 158.181 72.2843 158.063 73.7064 157.827C75.2076 157.512 76.5507 157.08 77.7358 156.53C78.9999 155.901 80.027 155.075 80.817 154.053C81.6071 153.031 82.0021 151.773 82.0021 150.28C82.0021 148.708 81.4886 146.939 80.4615 144.973C79.5134 142.929 78.2098 140.885 76.5507 138.841C74.9706 136.719 73.1139 134.675 70.9807 132.71C68.8475 130.744 66.6353 129.015 64.3442 127.521L62.8035 157.709ZM35.1907 79.7628C35.1907 80.7848 35.5462 81.8068 36.2573 82.8288C36.9684 83.7722 37.8769 84.7155 38.983 85.6589C40.0891 86.5236 41.3137 87.3491 42.6568 88.1352C43.9999 88.9214 45.3036 89.6682 46.5677 90.3757L47.2787 73.1592C45.7776 73.3165 44.2765 73.5523 42.7753 73.8668C41.3532 74.1026 40.0891 74.4957 38.983 75.046C37.8769 75.5177 36.9684 76.1466 36.2573 76.9327C35.5462 77.6402 35.1907 78.5836 35.1907 79.7628Z" stroke="black" stroke-width="18" mask="url(#path-1-outside-1_14_6)"/>
<path d="M228.48 112.545C227.532 112.545 226.703 113.292 225.992 114.785C222.99 120.603 219.79 125.87 216.392 130.587C213.074 135.304 209.716 139.313 206.319 142.615C202.922 145.917 199.564 148.472 196.246 150.28C192.927 152.009 189.807 152.874 186.883 152.874C184.039 152.874 181.393 152.284 178.943 151.105C176.573 149.847 173.966 147.528 171.122 144.148C168.356 140.767 165.157 136.09 161.522 130.115C157.967 124.141 153.582 116.358 148.368 106.767C147.499 105.195 146.59 104.055 145.642 103.347C144.773 102.561 143.983 102.168 143.272 102.168C142.245 102.168 141.297 103.268 140.428 105.47C139.558 107.592 138.808 110.619 138.176 114.55C137.544 118.402 137.03 123.079 136.635 128.582C136.319 134.007 136.161 140.021 136.161 146.624C136.161 150.555 136.359 154.486 136.754 158.416C137.228 162.347 137.465 166.396 137.465 170.562C137.465 171.977 137.07 173.314 136.28 174.572C135.49 175.751 134.423 176.773 133.08 177.638C131.816 178.581 130.275 179.328 128.458 179.878C126.72 180.428 124.863 180.704 122.888 180.704C118.938 180.704 116.094 178.345 114.355 173.628C112.617 168.911 111.748 161.364 111.748 150.987C111.748 137.859 112.459 125.949 113.881 115.257C115.382 104.487 117.476 95.2891 120.162 87.6636C122.928 79.9594 126.167 74.024 129.88 69.8574C133.672 65.6123 137.899 63.4897 142.561 63.4897C146.669 63.4897 150.58 65.8481 154.293 70.565C158.086 75.2032 162.154 82.7502 166.5 93.2059C168.238 97.451 170.095 101.421 172.07 105.116C174.124 108.811 176.139 112.034 178.114 114.785C180.168 117.458 182.143 119.581 184.039 121.153C185.935 122.647 187.634 123.394 189.135 123.394C190.636 123.394 192.058 123.079 193.402 122.45C194.824 121.743 196.404 120.288 198.142 118.087C199.959 115.807 202.053 112.506 204.423 108.182C206.872 103.858 209.874 98.0799 213.43 90.8474C215.326 87.0739 217.025 83.9294 218.526 81.4137C220.027 78.8981 221.528 76.8934 223.029 75.3997C224.53 73.8274 226.11 72.7268 227.769 72.0979C229.429 71.3904 231.285 71.0366 233.339 71.0366C235.789 71.0366 238.198 72.3338 240.568 74.928C242.939 77.5223 245.23 80.9813 247.442 85.3051C249.733 89.6289 251.945 94.6602 254.079 100.399C256.212 106.138 258.266 112.152 260.241 118.441C262.295 124.73 264.27 131.137 266.167 137.662C268.142 144.109 270.038 150.241 271.855 156.058C272.329 157.787 272.645 159.006 272.803 159.714C273.04 160.342 273.159 161.129 273.159 162.072C273.159 163.408 272.724 164.745 271.855 166.081C271.065 167.339 269.998 168.479 268.655 169.501C267.312 170.523 265.772 171.348 264.033 171.977C262.374 172.606 260.715 172.921 259.056 172.921C256.844 172.921 255.106 172.685 253.842 172.213C252.656 171.663 251.708 170.72 250.997 169.383C250.602 168.676 249.931 166.789 248.983 163.723C248.035 160.657 246.889 157.041 245.546 152.874C244.282 148.629 242.86 144.148 241.28 139.431C239.778 134.714 238.238 130.39 236.658 126.46C235.157 122.45 233.695 119.149 232.273 116.554C230.851 113.881 229.587 112.545 228.48 112.545Z" stroke="black" stroke-width="18" mask="url(#path-1-outside-1_14_6)"/>
<path d="M337.984 191.552C329.372 191.552 321.432 190.098 314.163 187.189C306.974 184.28 300.772 180.232 295.557 175.043C290.343 169.776 286.274 163.526 283.351 156.294C280.427 149.061 278.966 141.082 278.966 132.356C278.966 127.639 279.361 123.119 280.151 118.795C281.02 114.392 282.165 110.304 283.588 106.531C284.22 105.037 284.536 103.976 284.536 103.347C284.536 102.561 284.338 101.814 283.943 101.107C283.548 100.399 283.114 99.6522 282.64 98.8661C282.165 98.0799 281.731 97.2545 281.336 96.3897C280.941 95.525 280.743 94.5423 280.743 93.4417C280.743 90.1399 282.64 86.9167 286.432 83.7722C290.224 80.549 295.241 77.7189 301.483 75.2818C307.724 72.7662 314.795 70.7615 322.696 69.2678C330.597 67.6955 338.695 66.9094 346.99 66.9094C357.182 66.9094 366.347 68.2065 374.485 70.8008C382.701 73.3951 389.654 77.1292 395.343 82.0033C401.11 86.7988 405.534 92.6556 408.616 99.5736C411.697 106.492 413.238 114.274 413.238 122.922C413.238 132.592 411.302 141.632 407.431 150.044C403.559 158.377 398.226 165.61 391.432 171.742C384.716 177.873 376.776 182.708 367.611 186.246C358.446 189.783 348.571 191.552 337.984 191.552ZM389.417 127.521C389.417 121.389 388.35 115.886 386.217 111.012C384.084 106.138 381.003 102.05 376.973 98.7482C372.944 95.3678 367.967 92.8128 362.041 91.0833C356.195 89.2751 349.558 88.3711 342.132 88.3711C329.095 88.3711 319.259 91.6729 312.623 98.2765C306.065 104.801 302.786 114.55 302.786 127.521C302.786 133.81 303.774 139.588 305.749 144.855C307.724 150.044 310.489 154.525 314.045 158.298C317.6 161.993 321.827 164.902 326.725 167.025C331.703 169.069 337.154 170.091 343.08 170.091C349.874 170.091 356.116 169.069 361.804 167.025C367.493 164.902 372.352 161.954 376.381 158.181C380.489 154.407 383.689 149.926 385.98 144.738C388.271 139.47 389.417 133.732 389.417 127.521Z" stroke="black" stroke-width="18" mask="url(#path-1-outside-1_14_6)"/>
<path d="M543.243 112.545C542.295 112.545 541.465 113.292 540.754 114.785C537.752 120.603 534.552 125.87 531.155 130.587C527.837 135.304 524.479 139.313 521.082 142.615C517.684 145.917 514.327 148.472 511.008 150.28C507.69 152.009 504.569 152.874 501.646 152.874C498.802 152.874 496.155 152.284 493.706 151.105C491.336 149.847 488.728 147.528 485.884 144.148C483.119 140.767 479.919 136.09 476.285 130.115C472.73 124.141 468.345 116.358 463.13 106.767C462.261 105.195 461.353 104.055 460.404 103.347C459.535 102.561 458.745 102.168 458.034 102.168C457.007 102.168 456.059 103.268 455.19 105.47C454.321 107.592 453.57 110.619 452.938 114.55C452.306 118.402 451.793 123.079 451.398 128.582C451.082 134.007 450.924 140.021 450.924 146.624C450.924 150.555 451.121 154.486 451.516 158.416C451.99 162.347 452.227 166.396 452.227 170.562C452.227 171.977 451.832 173.314 451.042 174.572C450.252 175.751 449.186 176.773 447.842 177.638C446.578 178.581 445.038 179.328 443.221 179.878C441.482 180.428 439.626 180.704 437.651 180.704C433.7 180.704 430.856 178.345 429.118 173.628C427.38 168.911 426.511 161.364 426.511 150.987C426.511 137.859 427.222 125.949 428.644 115.257C430.145 104.487 432.239 95.2891 434.925 87.6636C437.69 79.9594 440.929 74.024 444.643 69.8574C448.435 65.6123 452.662 63.4897 457.323 63.4897C461.432 63.4897 465.342 65.8481 469.056 70.565C472.848 75.2032 476.917 82.7502 481.262 93.2059C483 97.451 484.857 101.421 486.832 105.116C488.886 108.811 490.901 112.034 492.876 114.785C494.93 117.458 496.906 119.581 498.802 121.153C500.698 122.647 502.397 123.394 503.898 123.394C505.399 123.394 506.821 123.079 508.164 122.45C509.586 121.743 511.166 120.288 512.904 118.087C514.722 115.807 516.815 112.506 519.185 108.182C521.635 103.858 524.637 98.0799 528.192 90.8474C530.088 87.0739 531.787 83.9294 533.288 81.4137C534.789 78.8981 536.29 76.8934 537.791 75.3997C539.293 73.8274 540.873 72.7268 542.532 72.0979C544.191 71.3904 546.048 71.0366 548.102 71.0366C550.551 71.0366 552.961 72.3338 555.331 74.928C557.701 77.5223 559.992 80.9813 562.205 85.3051C564.496 89.6289 566.708 94.6602 568.841 100.399C570.974 106.138 573.028 112.152 575.004 118.441C577.058 124.73 579.033 131.137 580.929 137.662C582.904 144.109 584.8 150.241 586.618 156.058C587.092 157.787 587.408 159.006 587.566 159.714C587.803 160.342 587.921 161.129 587.921 162.072C587.921 163.408 587.487 164.745 586.618 166.081C585.828 167.339 584.761 168.479 583.418 169.501C582.075 170.523 580.534 171.348 578.796 171.977C577.137 172.606 575.478 172.921 573.819 172.921C571.606 172.921 569.868 172.685 568.604 172.213C567.419 171.663 566.471 170.72 565.76 169.383C565.365 168.676 564.693 166.789 563.745 163.723C562.797 160.657 561.651 157.041 560.308 152.874C559.044 148.629 557.622 144.148 556.042 139.431C554.541 134.714 553 130.39 551.42 126.46C549.919 122.45 548.457 119.149 547.035 116.554C545.613 113.881 544.349 112.545 543.243 112.545Z" stroke="black" stroke-width="18" mask="url(#path-1-outside-1_14_6)"/>
<path d="M652.746 191.552C644.134 191.552 636.194 190.098 628.926 187.189C621.736 184.28 615.534 180.232 610.32 175.043C605.105 169.776 601.036 163.526 598.113 156.294C595.19 149.061 593.728 141.082 593.728 132.356C593.728 127.639 594.123 123.119 594.913 118.795C595.782 114.392 596.928 110.304 598.35 106.531C598.982 105.037 599.298 103.976 599.298 103.347C599.298 102.561 599.101 101.814 598.706 101.107C598.311 100.399 597.876 99.6522 597.402 98.8661C596.928 98.0799 596.493 97.2545 596.098 96.3897C595.703 95.525 595.506 94.5423 595.506 93.4417C595.506 90.1399 597.402 86.9167 601.194 83.7722C604.987 80.549 610.004 77.7189 616.245 75.2818C622.487 72.7662 629.558 70.7615 637.458 69.2678C645.359 67.6955 653.457 66.9094 661.753 66.9094C671.945 66.9094 681.11 68.2065 689.247 70.8008C697.464 73.3951 704.417 77.1292 710.105 82.0033C715.872 86.7988 720.297 92.6556 723.378 99.5736C726.459 106.492 728 114.274 728 122.922C728 132.592 726.064 141.632 722.193 150.044C718.322 158.377 712.989 165.61 706.194 171.742C699.479 177.873 691.538 182.708 682.374 186.246C673.209 189.783 663.333 191.552 652.746 191.552ZM704.179 127.521C704.179 121.389 703.113 115.886 700.98 111.012C698.847 106.138 695.765 102.05 691.736 98.7482C687.707 95.3678 682.729 92.8128 676.804 91.0833C670.957 89.2751 664.321 88.3711 656.894 88.3711C643.858 88.3711 634.022 91.6729 627.385 98.2765C620.827 104.801 617.549 114.55 617.549 127.521C617.549 133.81 618.536 139.588 620.511 144.855C622.487 150.044 625.252 154.525 628.807 158.298C632.362 161.993 636.589 164.902 641.488 167.025C646.465 169.069 651.917 170.091 657.842 170.091C664.637 170.091 670.878 169.069 676.567 167.025C682.255 164.902 687.114 161.954 691.143 158.181C695.252 154.407 698.452 149.926 700.743 144.738C703.034 139.47 704.179 133.732 704.179 127.521Z" stroke="black" stroke-width="18" mask="url(#path-1-outside-1_14_6)"/>
<mask id="path-2-outside-2_14_6" maskUnits="userSpaceOnUse" x="0" y="0" width="737" height="195" fill="black">
<rect fill="white" width="737" height="195"/>
<path d="M49.2934 17.7262C49.3724 16.547 49.6094 15.4464 50.0044 14.4244C50.3995 13.4024 51.071 12.4983 52.0191 11.7122C53.0462 10.8474 54.3893 10.1792 56.0485 9.70753C57.7076 9.23584 59.8013 9 62.3295 9C64.3837 9 66.0428 9.66822 67.3069 11.0047C68.571 12.2625 69.2031 14.1492 69.2031 16.6649L68.255 33.6456C73.3904 34.2745 77.4593 35.1785 80.4615 36.3578C83.4638 37.537 84.9649 39.0306 84.9649 40.8388C84.9649 41.5463 84.8464 42.4111 84.6094 43.433C84.3723 44.3764 83.7403 45.9487 82.7132 48.1499C81.6071 50.1939 80.422 51.7268 79.1579 52.7488C77.9728 53.6922 76.3532 54.1639 74.299 54.1639H67.1884L65.7663 80.932C70.0326 83.6835 74.4175 86.7102 78.9209 90.012C83.5033 93.2352 87.6116 96.7335 91.2459 100.507C94.9592 104.28 98.001 108.29 100.371 112.535C102.741 116.702 103.926 121.065 103.926 125.624C103.926 130.734 102.741 135.254 100.371 139.185C98.001 143.037 94.9592 146.26 91.2459 148.855C87.6116 151.449 83.5428 153.414 79.0394 154.751C74.615 156.087 70.2697 156.755 66.0033 156.755C65.2922 156.755 64.5812 156.755 63.8701 156.755C63.1591 156.755 62.4085 156.677 61.6184 156.52L60.6703 177.274C60.5913 178.453 60.3543 179.554 59.9593 180.576C59.5643 181.598 58.8927 182.502 57.9446 183.288C56.9965 184.153 55.6534 184.821 53.9153 185.292C52.2561 185.764 50.123 186 47.5157 186C45.4616 186 43.8024 185.332 42.5383 183.995C41.3532 182.659 40.7607 180.733 40.7607 178.217L42.1828 151.921C37.8374 150.113 33.7291 147.872 29.8578 145.199C25.9864 142.526 22.5891 139.5 19.6659 136.119C16.8217 132.66 14.57 128.926 12.9108 124.917C11.2517 120.907 10.4221 116.702 10.4221 112.299C10.4221 110.57 10.5406 108.84 10.7776 107.111C11.0147 105.302 11.4492 103.691 12.0813 102.276C12.7923 100.861 13.7009 99.7209 14.807 98.8561C15.9131 97.9913 17.3747 97.559 19.1919 97.559C19.8239 97.559 20.377 97.6376 20.851 97.7948C21.404 97.8734 21.9966 97.9913 22.6286 98.1486L24.7618 98.8561C25.6309 99.0133 26.5395 99.3671 27.4876 99.9174C28.4356 100.389 29.3047 100.979 30.0948 101.686C30.8848 102.394 31.5169 103.219 31.9909 104.163C32.544 105.106 32.8205 106.128 32.8205 107.229C32.8205 111.395 33.7686 115.247 35.6647 118.785C37.5609 122.244 40.1681 125.31 43.4864 127.983L45.1455 94.0213C40.3261 90.9554 35.7438 88.0466 31.3984 85.2951C27.053 82.5436 23.2212 79.8314 19.9029 77.1586C16.5846 74.4071 13.9379 71.6556 11.9627 68.9041C9.98758 66.1526 9 63.1652 9 59.942C9 56.1686 10.1851 52.7881 12.5553 49.8008C15.0045 46.7348 18.1253 44.1013 21.9176 41.9001C25.7099 39.6203 29.9368 37.7728 34.5982 36.3578C39.2595 34.9427 43.8419 33.96 48.3453 33.4097L49.2934 17.7262ZM62.8035 136.709C63.9096 136.866 65.0157 136.984 66.1218 137.063C67.2279 137.141 68.334 137.181 69.4401 137.181C70.8622 137.181 72.2843 137.063 73.7064 136.827C75.2076 136.512 76.5507 136.08 77.7358 135.53C78.9999 134.901 80.027 134.075 80.817 133.053C81.6071 132.031 82.0021 130.773 82.0021 129.28C82.0021 127.708 81.4886 125.939 80.4615 123.973C79.5134 121.929 78.2098 119.885 76.5507 117.841C74.9706 115.719 73.1139 113.675 70.9807 111.71C68.8475 109.744 66.6353 108.015 64.3442 106.521L62.8035 136.709ZM35.1907 58.7628C35.1907 59.7848 35.5462 60.8068 36.2573 61.8288C36.9684 62.7722 37.8769 63.7155 38.983 64.6589C40.0891 65.5236 41.3137 66.3491 42.6568 67.1352C43.9999 67.9214 45.3036 68.6682 46.5677 69.3757L47.2787 52.1592C45.7776 52.3165 44.2765 52.5523 42.7753 52.8668C41.3532 53.1026 40.0891 53.4957 38.983 54.046C37.8769 54.5177 36.9684 55.1466 36.2573 55.9327C35.5462 56.6402 35.1907 57.5836 35.1907 58.7628Z"/>
<path d="M228.48 91.545C227.532 91.545 226.703 92.2918 225.992 93.7855C222.99 99.6029 219.79 104.87 216.392 109.587C213.074 114.304 209.716 118.313 206.319 121.615C202.922 124.917 199.564 127.472 196.246 129.28C192.927 131.009 189.807 131.874 186.883 131.874C184.039 131.874 181.393 131.284 178.943 130.105C176.573 128.847 173.966 126.528 171.122 123.148C168.356 119.767 165.157 115.09 161.522 109.115C157.967 103.141 153.582 95.3578 148.368 85.7668C147.499 84.1945 146.59 83.0546 145.642 82.3471C144.773 81.561 143.983 81.1679 143.272 81.1679C142.245 81.1679 141.297 82.2685 140.428 84.4697C139.558 86.5923 138.808 89.6189 138.176 93.5496C137.544 97.4017 137.03 102.079 136.635 107.582C136.319 113.007 136.161 119.021 136.161 125.624C136.161 129.555 136.359 133.486 136.754 137.416C137.228 141.347 137.465 145.396 137.465 149.562C137.465 150.977 137.07 152.314 136.28 153.572C135.49 154.751 134.423 155.773 133.08 156.638C131.816 157.581 130.275 158.328 128.458 158.878C126.72 159.428 124.863 159.704 122.888 159.704C118.938 159.704 116.094 157.345 114.355 152.628C112.617 147.911 111.748 140.364 111.748 129.987C111.748 116.859 112.459 104.949 113.881 94.2572C115.382 83.487 117.476 74.2891 120.162 66.6636C122.928 58.9594 126.167 53.024 129.88 48.8574C133.672 44.6123 137.899 42.4897 142.561 42.4897C146.669 42.4897 150.58 44.8481 154.293 49.565C158.086 54.2032 162.154 61.7502 166.5 72.2059C168.238 76.451 170.095 80.4211 172.07 84.1159C174.124 87.8108 176.139 91.034 178.114 93.7855C180.168 96.4584 182.143 98.5809 184.039 100.153C185.935 101.647 187.634 102.394 189.135 102.394C190.636 102.394 192.058 102.079 193.402 101.45C194.824 100.743 196.404 99.2885 198.142 97.0873C199.959 94.8075 202.053 91.5057 204.423 87.1819C206.872 82.8581 209.874 77.0799 213.43 69.8474C215.326 66.0739 217.025 62.9294 218.526 60.4137C220.027 57.8981 221.528 55.8934 223.029 54.3997C224.53 52.8274 226.11 51.7268 227.769 51.0979C229.429 50.3904 231.285 50.0366 233.339 50.0366C235.789 50.0366 238.198 51.3338 240.568 53.928C242.939 56.5223 245.23 59.9813 247.442 64.3051C249.733 68.6289 251.945 73.6602 254.079 79.3991C256.212 85.1379 258.266 91.1519 260.241 97.441C262.295 103.73 264.27 110.137 266.167 116.662C268.142 123.109 270.038 129.241 271.855 135.058C272.329 136.787 272.645 138.006 272.803 138.714C273.04 139.342 273.159 140.129 273.159 141.072C273.159 142.408 272.724 143.745 271.855 145.081C271.065 146.339 269.998 147.479 268.655 148.501C267.312 149.523 265.772 150.348 264.033 150.977C262.374 151.606 260.715 151.921 259.056 151.921C256.844 151.921 255.106 151.685 253.842 151.213C252.656 150.663 251.708 149.72 250.997 148.383C250.602 147.676 249.931 145.789 248.983 142.723C248.035 139.657 246.889 136.041 245.546 131.874C244.282 127.629 242.86 123.148 241.28 118.431C239.778 113.714 238.238 109.39 236.658 105.46C235.157 101.45 233.695 98.1486 232.273 95.5543C230.851 92.8814 229.587 91.545 228.48 91.545Z"/>
<path d="M337.984 170.552C329.372 170.552 321.432 169.098 314.163 166.189C306.974 163.28 300.772 159.232 295.557 154.043C290.343 148.776 286.274 142.526 283.351 135.294C280.427 128.061 278.966 120.082 278.966 111.356C278.966 106.639 279.361 102.119 280.151 97.7948C281.02 93.3924 282.165 89.3045 283.588 85.531C284.22 84.0373 284.536 82.976 284.536 82.3471C284.536 81.561 284.338 80.8141 283.943 80.1066C283.548 79.3991 283.114 78.6522 282.64 77.8661C282.165 77.0799 281.731 76.2545 281.336 75.3897C280.941 74.525 280.743 73.5423 280.743 72.4417C280.743 69.1399 282.64 65.9167 286.432 62.7722C290.224 59.549 295.241 56.7189 301.483 54.2818C307.724 51.7662 314.795 49.7615 322.696 48.2678C330.597 46.6955 338.695 45.9094 346.99 45.9094C357.182 45.9094 366.347 47.2065 374.485 49.8008C382.701 52.3951 389.654 56.1292 395.343 61.0033C401.11 65.7988 405.534 71.6556 408.616 78.5736C411.697 85.4917 413.238 93.2745 413.238 101.922C413.238 111.592 411.302 120.632 407.431 129.044C403.559 137.377 398.226 144.61 391.432 150.742C384.716 156.873 376.776 161.708 367.611 165.246C358.446 168.783 348.571 170.552 337.984 170.552ZM389.417 106.521C389.417 100.389 388.35 94.8861 386.217 90.012C384.084 85.1379 381.003 81.05 376.973 77.7482C372.944 74.3678 367.967 71.8128 362.041 70.0833C356.195 68.2751 349.558 67.3711 342.132 67.3711C329.095 67.3711 319.259 70.6729 312.623 77.2765C306.065 83.8015 302.786 93.5496 302.786 106.521C302.786 112.81 303.774 118.588 305.749 123.855C307.724 129.044 310.489 133.525 314.045 137.298C317.6 140.993 321.827 143.902 326.725 146.025C331.703 148.069 337.154 149.091 343.08 149.091C349.874 149.091 356.116 148.069 361.804 146.025C367.493 143.902 372.352 140.954 376.381 137.181C380.489 133.407 383.689 128.926 385.98 123.738C388.271 118.47 389.417 112.732 389.417 106.521Z"/>
<path d="M543.243 91.545C542.295 91.545 541.465 92.2918 540.754 93.7855C537.752 99.6029 534.552 104.87 531.155 109.587C527.837 114.304 524.479 118.313 521.082 121.615C517.684 124.917 514.327 127.472 511.008 129.28C507.69 131.009 504.569 131.874 501.646 131.874C498.802 131.874 496.155 131.284 493.706 130.105C491.336 128.847 488.728 126.528 485.884 123.148C483.119 119.767 479.919 115.09 476.285 109.115C472.73 103.141 468.345 95.3578 463.13 85.7668C462.261 84.1945 461.353 83.0546 460.404 82.3471C459.535 81.561 458.745 81.1679 458.034 81.1679C457.007 81.1679 456.059 82.2685 455.19 84.4697C454.321 86.5923 453.57 89.6189 452.938 93.5496C452.306 97.4017 451.793 102.079 451.398 107.582C451.082 113.007 450.924 119.021 450.924 125.624C450.924 129.555 451.121 133.486 451.516 137.416C451.99 141.347 452.227 145.396 452.227 149.562C452.227 150.977 451.832 152.314 451.042 153.572C450.252 154.751 449.186 155.773 447.842 156.638C446.578 157.581 445.038 158.328 443.221 158.878C441.482 159.428 439.626 159.704 437.651 159.704C433.7 159.704 430.856 157.345 429.118 152.628C427.38 147.911 426.511 140.364 426.511 129.987C426.511 116.859 427.222 104.949 428.644 94.2572C430.145 83.487 432.239 74.2891 434.925 66.6636C437.69 58.9594 440.929 53.024 444.643 48.8574C448.435 44.6123 452.662 42.4897 457.323 42.4897C461.432 42.4897 465.342 44.8481 469.056 49.565C472.848 54.2032 476.917 61.7502 481.262 72.2059C483 76.451 484.857 80.4211 486.832 84.1159C488.886 87.8108 490.901 91.034 492.876 93.7855C494.93 96.4584 496.906 98.5809 498.802 100.153C500.698 101.647 502.397 102.394 503.898 102.394C505.399 102.394 506.821 102.079 508.164 101.45C509.586 100.743 511.166 99.2885 512.904 97.0873C514.722 94.8075 516.815 91.5057 519.185 87.1819C521.635 82.8581 524.637 77.0799 528.192 69.8474C530.088 66.0739 531.787 62.9294 533.288 60.4137C534.789 57.8981 536.29 55.8934 537.791 54.3997C539.293 52.8274 540.873 51.7268 542.532 51.0979C544.191 50.3904 546.048 50.0366 548.102 50.0366C550.551 50.0366 552.961 51.3338 555.331 53.928C557.701 56.5223 559.992 59.9813 562.205 64.3051C564.496 68.6289 566.708 73.6602 568.841 79.3991C570.974 85.1379 573.028 91.1519 575.004 97.441C577.058 103.73 579.033 110.137 580.929 116.662C582.904 123.109 584.8 129.241 586.618 135.058C587.092 136.787 587.408 138.006 587.566 138.714C587.803 139.342 587.921 140.129 587.921 141.072C587.921 142.408 587.487 143.745 586.618 145.081C585.828 146.339 584.761 147.479 583.418 148.501C582.075 149.523 580.534 150.348 578.796 150.977C577.137 151.606 575.478 151.921 573.819 151.921C571.606 151.921 569.868 151.685 568.604 151.213C567.419 150.663 566.471 149.72 565.76 148.383C565.365 147.676 564.693 145.789 563.745 142.723C562.797 139.657 561.651 136.041 560.308 131.874C559.044 127.629 557.622 123.148 556.042 118.431C554.541 113.714 553 109.39 551.42 105.46C549.919 101.45 548.457 98.1486 547.035 95.5543C545.613 92.8814 544.349 91.545 543.243 91.545Z"/>
<path d="M652.746 170.552C644.134 170.552 636.194 169.098 628.926 166.189C621.736 163.28 615.534 159.232 610.32 154.043C605.105 148.776 601.036 142.526 598.113 135.294C595.19 128.061 593.728 120.082 593.728 111.356C593.728 106.639 594.123 102.119 594.913 97.7948C595.782 93.3924 596.928 89.3045 598.35 85.531C598.982 84.0373 599.298 82.976 599.298 82.3471C599.298 81.561 599.101 80.8141 598.706 80.1066C598.311 79.3991 597.876 78.6522 597.402 77.8661C596.928 77.0799 596.493 76.2545 596.098 75.3897C595.703 74.525 595.506 73.5423 595.506 72.4417C595.506 69.1399 597.402 65.9167 601.194 62.7722C604.987 59.549 610.004 56.7189 616.245 54.2818C622.487 51.7662 629.558 49.7615 637.458 48.2678C645.359 46.6955 653.457 45.9094 661.753 45.9094C671.945 45.9094 681.11 47.2065 689.247 49.8008C697.464 52.3951 704.417 56.1292 710.105 61.0033C715.872 65.7988 720.297 71.6556 723.378 78.5736C726.459 85.4917 728 93.2745 728 101.922C728 111.592 726.064 120.632 722.193 129.044C718.322 137.377 712.989 144.61 706.194 150.742C699.479 156.873 691.538 161.708 682.374 165.246C673.209 168.783 663.333 170.552 652.746 170.552ZM704.179 106.521C704.179 100.389 703.113 94.8861 700.98 90.012C698.847 85.1379 695.765 81.05 691.736 77.7482C687.707 74.3678 682.729 71.8128 676.804 70.0833C670.957 68.2751 664.321 67.3711 656.894 67.3711C643.858 67.3711 634.022 70.6729 627.385 77.2765C620.827 83.8015 617.549 93.5496 617.549 106.521C617.549 112.81 618.536 118.588 620.511 123.855C622.487 129.044 625.252 133.525 628.807 137.298C632.362 140.993 636.589 143.902 641.488 146.025C646.465 148.069 651.917 149.091 657.842 149.091C664.637 149.091 670.878 148.069 676.567 146.025C682.255 143.902 687.114 140.954 691.143 137.181C695.252 133.407 698.452 128.926 700.743 123.738C703.034 118.47 704.179 112.732 704.179 106.521Z"/>
</mask>
<path d="M49.2934 17.7262C49.3724 16.547 49.6094 15.4464 50.0044 14.4244C50.3995 13.4024 51.071 12.4983 52.0191 11.7122C53.0462 10.8474 54.3893 10.1792 56.0485 9.70753C57.7076 9.23584 59.8013 9 62.3295 9C64.3837 9 66.0428 9.66822 67.3069 11.0047C68.571 12.2625 69.2031 14.1492 69.2031 16.6649L68.255 33.6456C73.3904 34.2745 77.4593 35.1785 80.4615 36.3578C83.4638 37.537 84.9649 39.0306 84.9649 40.8388C84.9649 41.5463 84.8464 42.4111 84.6094 43.433C84.3723 44.3764 83.7403 45.9487 82.7132 48.1499C81.6071 50.1939 80.422 51.7268 79.1579 52.7488C77.9728 53.6922 76.3532 54.1639 74.299 54.1639H67.1884L65.7663 80.932C70.0326 83.6835 74.4175 86.7102 78.9209 90.012C83.5033 93.2352 87.6116 96.7335 91.2459 100.507C94.9592 104.28 98.001 108.29 100.371 112.535C102.741 116.702 103.926 121.065 103.926 125.624C103.926 130.734 102.741 135.254 100.371 139.185C98.001 143.037 94.9592 146.26 91.2459 148.855C87.6116 151.449 83.5428 153.414 79.0394 154.751C74.615 156.087 70.2697 156.755 66.0033 156.755C65.2922 156.755 64.5812 156.755 63.8701 156.755C63.1591 156.755 62.4085 156.677 61.6184 156.52L60.6703 177.274C60.5913 178.453 60.3543 179.554 59.9593 180.576C59.5643 181.598 58.8927 182.502 57.9446 183.288C56.9965 184.153 55.6534 184.821 53.9153 185.292C52.2561 185.764 50.123 186 47.5157 186C45.4616 186 43.8024 185.332 42.5383 183.995C41.3532 182.659 40.7607 180.733 40.7607 178.217L42.1828 151.921C37.8374 150.113 33.7291 147.872 29.8578 145.199C25.9864 142.526 22.5891 139.5 19.6659 136.119C16.8217 132.66 14.57 128.926 12.9108 124.917C11.2517 120.907 10.4221 116.702 10.4221 112.299C10.4221 110.57 10.5406 108.84 10.7776 107.111C11.0147 105.302 11.4492 103.691 12.0813 102.276C12.7923 100.861 13.7009 99.7209 14.807 98.8561C15.9131 97.9913 17.3747 97.559 19.1919 97.559C19.8239 97.559 20.377 97.6376 20.851 97.7948C21.404 97.8734 21.9966 97.9913 22.6286 98.1486L24.7618 98.8561C25.6309 99.0133 26.5395 99.3671 27.4876 99.9174C28.4356 100.389 29.3047 100.979 30.0948 101.686C30.8848 102.394 31.5169 103.219 31.9909 104.163C32.544 105.106 32.8205 106.128 32.8205 107.229C32.8205 111.395 33.7686 115.247 35.6647 118.785C37.5609 122.244 40.1681 125.31 43.4864 127.983L45.1455 94.0213C40.3261 90.9554 35.7438 88.0466 31.3984 85.2951C27.053 82.5436 23.2212 79.8314 19.9029 77.1586C16.5846 74.4071 13.9379 71.6556 11.9627 68.9041C9.98758 66.1526 9 63.1652 9 59.942C9 56.1686 10.1851 52.7881 12.5553 49.8008C15.0045 46.7348 18.1253 44.1013 21.9176 41.9001C25.7099 39.6203 29.9368 37.7728 34.5982 36.3578C39.2595 34.9427 43.8419 33.96 48.3453 33.4097L49.2934 17.7262ZM62.8035 136.709C63.9096 136.866 65.0157 136.984 66.1218 137.063C67.2279 137.141 68.334 137.181 69.4401 137.181C70.8622 137.181 72.2843 137.063 73.7064 136.827C75.2076 136.512 76.5507 136.08 77.7358 135.53C78.9999 134.901 80.027 134.075 80.817 133.053C81.6071 132.031 82.0021 130.773 82.0021 129.28C82.0021 127.708 81.4886 125.939 80.4615 123.973C79.5134 121.929 78.2098 119.885 76.5507 117.841C74.9706 115.719 73.1139 113.675 70.9807 111.71C68.8475 109.744 66.6353 108.015 64.3442 106.521L62.8035 136.709ZM35.1907 58.7628C35.1907 59.7848 35.5462 60.8068 36.2573 61.8288C36.9684 62.7722 37.8769 63.7155 38.983 64.6589C40.0891 65.5236 41.3137 66.3491 42.6568 67.1352C43.9999 67.9214 45.3036 68.6682 46.5677 69.3757L47.2787 52.1592C45.7776 52.3165 44.2765 52.5523 42.7753 52.8668C41.3532 53.1026 40.0891 53.4957 38.983 54.046C37.8769 54.5177 36.9684 55.1466 36.2573 55.9327C35.5462 56.6402 35.1907 57.5836 35.1907 58.7628Z" fill="white"/>
<path d="M228.48 91.545C227.532 91.545 226.703 92.2918 225.992 93.7855C222.99 99.6029 219.79 104.87 216.392 109.587C213.074 114.304 209.716 118.313 206.319 121.615C202.922 124.917 199.564 127.472 196.246 129.28C192.927 131.009 189.807 131.874 186.883 131.874C184.039 131.874 181.393 131.284 178.943 130.105C176.573 128.847 173.966 126.528 171.122 123.148C168.356 119.767 165.157 115.09 161.522 109.115C157.967 103.141 153.582 95.3578 148.368 85.7668C147.499 84.1945 146.59 83.0546 145.642 82.3471C144.773 81.561 143.983 81.1679 143.272 81.1679C142.245 81.1679 141.297 82.2685 140.428 84.4697C139.558 86.5923 138.808 89.6189 138.176 93.5496C137.544 97.4017 137.03 102.079 136.635 107.582C136.319 113.007 136.161 119.021 136.161 125.624C136.161 129.555 136.359 133.486 136.754 137.416C137.228 141.347 137.465 145.396 137.465 149.562C137.465 150.977 137.07 152.314 136.28 153.572C135.49 154.751 134.423 155.773 133.08 156.638C131.816 157.581 130.275 158.328 128.458 158.878C126.72 159.428 124.863 159.704 122.888 159.704C118.938 159.704 116.094 157.345 114.355 152.628C112.617 147.911 111.748 140.364 111.748 129.987C111.748 116.859 112.459 104.949 113.881 94.2572C115.382 83.487 117.476 74.2891 120.162 66.6636C122.928 58.9594 126.167 53.024 129.88 48.8574C133.672 44.6123 137.899 42.4897 142.561 42.4897C146.669 42.4897 150.58 44.8481 154.293 49.565C158.086 54.2032 162.154 61.7502 166.5 72.2059C168.238 76.451 170.095 80.4211 172.07 84.1159C174.124 87.8108 176.139 91.034 178.114 93.7855C180.168 96.4584 182.143 98.5809 184.039 100.153C185.935 101.647 187.634 102.394 189.135 102.394C190.636 102.394 192.058 102.079 193.402 101.45C194.824 100.743 196.404 99.2885 198.142 97.0873C199.959 94.8075 202.053 91.5057 204.423 87.1819C206.872 82.8581 209.874 77.0799 213.43 69.8474C215.326 66.0739 217.025 62.9294 218.526 60.4137C220.027 57.8981 221.528 55.8934 223.029 54.3997C224.53 52.8274 226.11 51.7268 227.769 51.0979C229.429 50.3904 231.285 50.0366 233.339 50.0366C235.789 50.0366 238.198 51.3338 240.568 53.928C242.939 56.5223 245.23 59.9813 247.442 64.3051C249.733 68.6289 251.945 73.6602 254.079 79.3991C256.212 85.1379 258.266 91.1519 260.241 97.441C262.295 103.73 264.27 110.137 266.167 116.662C268.142 123.109 270.038 129.241 271.855 135.058C272.329 136.787 272.645 138.006 272.803 138.714C273.04 139.342 273.159 140.129 273.159 141.072C273.159 142.408 272.724 143.745 271.855 145.081C271.065 146.339 269.998 147.479 268.655 148.501C267.312 149.523 265.772 150.348 264.033 150.977C262.374 151.606 260.715 151.921 259.056 151.921C256.844 151.921 255.106 151.685 253.842 151.213C252.656 150.663 251.708 149.72 250.997 148.383C250.602 147.676 249.931 145.789 248.983 142.723C248.035 139.657 246.889 136.041 245.546 131.874C244.282 127.629 242.86 123.148 241.28 118.431C239.778 113.714 238.238 109.39 236.658 105.46C235.157 101.45 233.695 98.1486 232.273 95.5543C230.851 92.8814 229.587 91.545 228.48 91.545Z" fill="white"/>
<path d="M337.984 170.552C329.372 170.552 321.432 169.098 314.163 166.189C306.974 163.28 300.772 159.232 295.557 154.043C290.343 148.776 286.274 142.526 283.351 135.294C280.427 128.061 278.966 120.082 278.966 111.356C278.966 106.639 279.361 102.119 280.151 97.7948C281.02 93.3924 282.165 89.3045 283.588 85.531C284.22 84.0373 284.536 82.976 284.536 82.3471C284.536 81.561 284.338 80.8141 283.943 80.1066C283.548 79.3991 283.114 78.6522 282.64 77.8661C282.165 77.0799 281.731 76.2545 281.336 75.3897C280.941 74.525 280.743 73.5423 280.743 72.4417C280.743 69.1399 282.64 65.9167 286.432 62.7722C290.224 59.549 295.241 56.7189 301.483 54.2818C307.724 51.7662 314.795 49.7615 322.696 48.2678C330.597 46.6955 338.695 45.9094 346.99 45.9094C357.182 45.9094 366.347 47.2065 374.485 49.8008C382.701 52.3951 389.654 56.1292 395.343 61.0033C401.11 65.7988 405.534 71.6556 408.616 78.5736C411.697 85.4917 413.238 93.2745 413.238 101.922C413.238 111.592 411.302 120.632 407.431 129.044C403.559 137.377 398.226 144.61 391.432 150.742C384.716 156.873 376.776 161.708 367.611 165.246C358.446 168.783 348.571 170.552 337.984 170.552ZM389.417 106.521C389.417 100.389 388.35 94.8861 386.217 90.012C384.084 85.1379 381.003 81.05 376.973 77.7482C372.944 74.3678 367.967 71.8128 362.041 70.0833C356.195 68.2751 349.558 67.3711 342.132 67.3711C329.095 67.3711 319.259 70.6729 312.623 77.2765C306.065 83.8015 302.786 93.5496 302.786 106.521C302.786 112.81 303.774 118.588 305.749 123.855C307.724 129.044 310.489 133.525 314.045 137.298C317.6 140.993 321.827 143.902 326.725 146.025C331.703 148.069 337.154 149.091 343.08 149.091C349.874 149.091 356.116 148.069 361.804 146.025C367.493 143.902 372.352 140.954 376.381 137.181C380.489 133.407 383.689 128.926 385.98 123.738C388.271 118.47 389.417 112.732 389.417 106.521Z" fill="white"/>
<path d="M543.243 91.545C542.295 91.545 541.465 92.2918 540.754 93.7855C537.752 99.6029 534.552 104.87 531.155 109.587C527.837 114.304 524.479 118.313 521.082 121.615C517.684 124.917 514.327 127.472 511.008 129.28C507.69 131.009 504.569 131.874 501.646 131.874C498.802 131.874 496.155 131.284 493.706 130.105C491.336 128.847 488.728 126.528 485.884 123.148C483.119 119.767 479.919 115.09 476.285 109.115C472.73 103.141 468.345 95.3578 463.13 85.7668C462.261 84.1945 461.353 83.0546 460.404 82.3471C459.535 81.561 458.745 81.1679 458.034 81.1679C457.007 81.1679 456.059 82.2685 455.19 84.4697C454.321 86.5923 453.57 89.6189 452.938 93.5496C452.306 97.4017 451.793 102.079 451.398 107.582C451.082 113.007 450.924 119.021 450.924 125.624C450.924 129.555 451.121 133.486 451.516 137.416C451.99 141.347 452.227 145.396 452.227 149.562C452.227 150.977 451.832 152.314 451.042 153.572C450.252 154.751 449.186 155.773 447.842 156.638C446.578 157.581 445.038 158.328 443.221 158.878C441.482 159.428 439.626 159.704 437.651 159.704C433.7 159.704 430.856 157.345 429.118 152.628C427.38 147.911 426.511 140.364 426.511 129.987C426.511 116.859 427.222 104.949 428.644 94.2572C430.145 83.487 432.239 74.2891 434.925 66.6636C437.69 58.9594 440.929 53.024 444.643 48.8574C448.435 44.6123 452.662 42.4897 457.323 42.4897C461.432 42.4897 465.342 44.8481 469.056 49.565C472.848 54.2032 476.917 61.7502 481.262 72.2059C483 76.451 484.857 80.4211 486.832 84.1159C488.886 87.8108 490.901 91.034 492.876 93.7855C494.93 96.4584 496.906 98.5809 498.802 100.153C500.698 101.647 502.397 102.394 503.898 102.394C505.399 102.394 506.821 102.079 508.164 101.45C509.586 100.743 511.166 99.2885 512.904 97.0873C514.722 94.8075 516.815 91.5057 519.185 87.1819C521.635 82.8581 524.637 77.0799 528.192 69.8474C530.088 66.0739 531.787 62.9294 533.288 60.4137C534.789 57.8981 536.29 55.8934 537.791 54.3997C539.293 52.8274 540.873 51.7268 542.532 51.0979C544.191 50.3904 546.048 50.0366 548.102 50.0366C550.551 50.0366 552.961 51.3338 555.331 53.928C557.701 56.5223 559.992 59.9813 562.205 64.3051C564.496 68.6289 566.708 73.6602 568.841 79.3991C570.974 85.1379 573.028 91.1519 575.004 97.441C577.058 103.73 579.033 110.137 580.929 116.662C582.904 123.109 584.8 129.241 586.618 135.058C587.092 136.787 587.408 138.006 587.566 138.714C587.803 139.342 587.921 140.129 587.921 141.072C587.921 142.408 587.487 143.745 586.618 145.081C585.828 146.339 584.761 147.479 583.418 148.501C582.075 149.523 580.534 150.348 578.796 150.977C577.137 151.606 575.478 151.921 573.819 151.921C571.606 151.921 569.868 151.685 568.604 151.213C567.419 150.663 566.471 149.72 565.76 148.383C565.365 147.676 564.693 145.789 563.745 142.723C562.797 139.657 561.651 136.041 560.308 131.874C559.044 127.629 557.622 123.148 556.042 118.431C554.541 113.714 553 109.39 551.42 105.46C549.919 101.45 548.457 98.1486 547.035 95.5543C545.613 92.8814 544.349 91.545 543.243 91.545Z" fill="white"/>
<path d="M652.746 170.552C644.134 170.552 636.194 169.098 628.926 166.189C621.736 163.28 615.534 159.232 610.32 154.043C605.105 148.776 601.036 142.526 598.113 135.294C595.19 128.061 593.728 120.082 593.728 111.356C593.728 106.639 594.123 102.119 594.913 97.7948C595.782 93.3924 596.928 89.3045 598.35 85.531C598.982 84.0373 599.298 82.976 599.298 82.3471C599.298 81.561 599.101 80.8141 598.706 80.1066C598.311 79.3991 597.876 78.6522 597.402 77.8661C596.928 77.0799 596.493 76.2545 596.098 75.3897C595.703 74.525 595.506 73.5423 595.506 72.4417C595.506 69.1399 597.402 65.9167 601.194 62.7722C604.987 59.549 610.004 56.7189 616.245 54.2818C622.487 51.7662 629.558 49.7615 637.458 48.2678C645.359 46.6955 653.457 45.9094 661.753 45.9094C671.945 45.9094 681.11 47.2065 689.247 49.8008C697.464 52.3951 704.417 56.1292 710.105 61.0033C715.872 65.7988 720.297 71.6556 723.378 78.5736C726.459 85.4917 728 93.2745 728 101.922C728 111.592 726.064 120.632 722.193 129.044C718.322 137.377 712.989 144.61 706.194 150.742C699.479 156.873 691.538 161.708 682.374 165.246C673.209 168.783 663.333 170.552 652.746 170.552ZM704.179 106.521C704.179 100.389 703.113 94.8861 700.98 90.012C698.847 85.1379 695.765 81.05 691.736 77.7482C687.707 74.3678 682.729 71.8128 676.804 70.0833C670.957 68.2751 664.321 67.3711 656.894 67.3711C643.858 67.3711 634.022 70.6729 627.385 77.2765C620.827 83.8015 617.549 93.5496 617.549 106.521C617.549 112.81 618.536 118.588 620.511 123.855C622.487 129.044 625.252 133.525 628.807 137.298C632.362 140.993 636.589 143.902 641.488 146.025C646.465 148.069 651.917 149.091 657.842 149.091C664.637 149.091 670.878 148.069 676.567 146.025C682.255 143.902 687.114 140.954 691.143 137.181C695.252 133.407 698.452 128.926 700.743 123.738C703.034 118.47 704.179 112.732 704.179 106.521Z" fill="white"/>
<path d="M49.2934 17.7262C49.3724 16.547 49.6094 15.4464 50.0044 14.4244C50.3995 13.4024 51.071 12.4983 52.0191 11.7122C53.0462 10.8474 54.3893 10.1792 56.0485 9.70753C57.7076 9.23584 59.8013 9 62.3295 9C64.3837 9 66.0428 9.66822 67.3069 11.0047C68.571 12.2625 69.2031 14.1492 69.2031 16.6649L68.255 33.6456C73.3904 34.2745 77.4593 35.1785 80.4615 36.3578C83.4638 37.537 84.9649 39.0306 84.9649 40.8388C84.9649 41.5463 84.8464 42.4111 84.6094 43.433C84.3723 44.3764 83.7403 45.9487 82.7132 48.1499C81.6071 50.1939 80.422 51.7268 79.1579 52.7488C77.9728 53.6922 76.3532 54.1639 74.299 54.1639H67.1884L65.7663 80.932C70.0326 83.6835 74.4175 86.7102 78.9209 90.012C83.5033 93.2352 87.6116 96.7335 91.2459 100.507C94.9592 104.28 98.001 108.29 100.371 112.535C102.741 116.702 103.926 121.065 103.926 125.624C103.926 130.734 102.741 135.254 100.371 139.185C98.001 143.037 94.9592 146.26 91.2459 148.855C87.6116 151.449 83.5428 153.414 79.0394 154.751C74.615 156.087 70.2697 156.755 66.0033 156.755C65.2922 156.755 64.5812 156.755 63.8701 156.755C63.1591 156.755 62.4085 156.677 61.6184 156.52L60.6703 177.274C60.5913 178.453 60.3543 179.554 59.9593 180.576C59.5643 181.598 58.8927 182.502 57.9446 183.288C56.9965 184.153 55.6534 184.821 53.9153 185.292C52.2561 185.764 50.123 186 47.5157 186C45.4616 186 43.8024 185.332 42.5383 183.995C41.3532 182.659 40.7607 180.733 40.7607 178.217L42.1828 151.921C37.8374 150.113 33.7291 147.872 29.8578 145.199C25.9864 142.526 22.5891 139.5 19.6659 136.119C16.8217 132.66 14.57 128.926 12.9108 124.917C11.2517 120.907 10.4221 116.702 10.4221 112.299C10.4221 110.57 10.5406 108.84 10.7776 107.111C11.0147 105.302 11.4492 103.691 12.0813 102.276C12.7923 100.861 13.7009 99.7209 14.807 98.8561C15.9131 97.9913 17.3747 97.559 19.1919 97.559C19.8239 97.559 20.377 97.6376 20.851 97.7948C21.404 97.8734 21.9966 97.9913 22.6286 98.1486L24.7618 98.8561C25.6309 99.0133 26.5395 99.3671 27.4876 99.9174C28.4356 100.389 29.3047 100.979 30.0948 101.686C30.8848 102.394 31.5169 103.219 31.9909 104.163C32.544 105.106 32.8205 106.128 32.8205 107.229C32.8205 111.395 33.7686 115.247 35.6647 118.785C37.5609 122.244 40.1681 125.31 43.4864 127.983L45.1455 94.0213C40.3261 90.9554 35.7438 88.0466 31.3984 85.2951C27.053 82.5436 23.2212 79.8314 19.9029 77.1586C16.5846 74.4071 13.9379 71.6556 11.9627 68.9041C9.98758 66.1526 9 63.1652 9 59.942C9 56.1686 10.1851 52.7881 12.5553 49.8008C15.0045 46.7348 18.1253 44.1013 21.9176 41.9001C25.7099 39.6203 29.9368 37.7728 34.5982 36.3578C39.2595 34.9427 43.8419 33.96 48.3453 33.4097L49.2934 17.7262ZM62.8035 136.709C63.9096 136.866 65.0157 136.984 66.1218 137.063C67.2279 137.141 68.334 137.181 69.4401 137.181C70.8622 137.181 72.2843 137.063 73.7064 136.827C75.2076 136.512 76.5507 136.08 77.7358 135.53C78.9999 134.901 80.027 134.075 80.817 133.053C81.6071 132.031 82.0021 130.773 82.0021 129.28C82.0021 127.708 81.4886 125.939 80.4615 123.973C79.5134 121.929 78.2098 119.885 76.5507 117.841C74.9706 115.719 73.1139 113.675 70.9807 111.71C68.8475 109.744 66.6353 108.015 64.3442 106.521L62.8035 136.709ZM35.1907 58.7628C35.1907 59.7848 35.5462 60.8068 36.2573 61.8288C36.9684 62.7722 37.8769 63.7155 38.983 64.6589C40.0891 65.5236 41.3137 66.3491 42.6568 67.1352C43.9999 67.9214 45.3036 68.6682 46.5677 69.3757L47.2787 52.1592C45.7776 52.3165 44.2765 52.5523 42.7753 52.8668C41.3532 53.1026 40.0891 53.4957 38.983 54.046C37.8769 54.5177 36.9684 55.1466 36.2573 55.9327C35.5462 56.6402 35.1907 57.5836 35.1907 58.7628Z" stroke="black" stroke-width="18" mask="url(#path-2-outside-2_14_6)"/>
<path d="M228.48 91.545C227.532 91.545 226.703 92.2918 225.992 93.7855C222.99 99.6029 219.79 104.87 216.392 109.587C213.074 114.304 209.716 118.313 206.319 121.615C202.922 124.917 199.564 127.472 196.246 129.28C192.927 131.009 189.807 131.874 186.883 131.874C184.039 131.874 181.393 131.284 178.943 130.105C176.573 128.847 173.966 126.528 171.122 123.148C168.356 119.767 165.157 115.09 161.522 109.115C157.967 103.141 153.582 95.3578 148.368 85.7668C147.499 84.1945 146.59 83.0546 145.642 82.3471C144.773 81.561 143.983 81.1679 143.272 81.1679C142.245 81.1679 141.297 82.2685 140.428 84.4697C139.558 86.5923 138.808 89.6189 138.176 93.5496C137.544 97.4017 137.03 102.079 136.635 107.582C136.319 113.007 136.161 119.021 136.161 125.624C136.161 129.555 136.359 133.486 136.754 137.416C137.228 141.347 137.465 145.396 137.465 149.562C137.465 150.977 137.07 152.314 136.28 153.572C135.49 154.751 134.423 155.773 133.08 156.638C131.816 157.581 130.275 158.328 128.458 158.878C126.72 159.428 124.863 159.704 122.888 159.704C118.938 159.704 116.094 157.345 114.355 152.628C112.617 147.911 111.748 140.364 111.748 129.987C111.748 116.859 112.459 104.949 113.881 94.2572C115.382 83.487 117.476 74.2891 120.162 66.6636C122.928 58.9594 126.167 53.024 129.88 48.8574C133.672 44.6123 137.899 42.4897 142.561 42.4897C146.669 42.4897 150.58 44.8481 154.293 49.565C158.086 54.2032 162.154 61.7502 166.5 72.2059C168.238 76.451 170.095 80.4211 172.07 84.1159C174.124 87.8108 176.139 91.034 178.114 93.7855C180.168 96.4584 182.143 98.5809 184.039 100.153C185.935 101.647 187.634 102.394 189.135 102.394C190.636 102.394 192.058 102.079 193.402 101.45C194.824 100.743 196.404 99.2885 198.142 97.0873C199.959 94.8075 202.053 91.5057 204.423 87.1819C206.872 82.8581 209.874 77.0799 213.43 69.8474C215.326 66.0739 217.025 62.9294 218.526 60.4137C220.027 57.8981 221.528 55.8934 223.029 54.3997C224.53 52.8274 226.11 51.7268 227.769 51.0979C229.429 50.3904 231.285 50.0366 233.339 50.0366C235.789 50.0366 238.198 51.3338 240.568 53.928C242.939 56.5223 245.23 59.9813 247.442 64.3051C249.733 68.6289 251.945 73.6602 254.079 79.3991C256.212 85.1379 258.266 91.1519 260.241 97.441C262.295 103.73 264.27 110.137 266.167 116.662C268.142 123.109 270.038 129.241 271.855 135.058C272.329 136.787 272.645 138.006 272.803 138.714C273.04 139.342 273.159 140.129 273.159 141.072C273.159 142.408 272.724 143.745 271.855 145.081C271.065 146.339 269.998 147.479 268.655 148.501C267.312 149.523 265.772 150.348 264.033 150.977C262.374 151.606 260.715 151.921 259.056 151.921C256.844 151.921 255.106 151.685 253.842 151.213C252.656 150.663 251.708 149.72 250.997 148.383C250.602 147.676 249.931 145.789 248.983 142.723C248.035 139.657 246.889 136.041 245.546 131.874C244.282 127.629 242.86 123.148 241.28 118.431C239.778 113.714 238.238 109.39 236.658 105.46C235.157 101.45 233.695 98.1486 232.273 95.5543C230.851 92.8814 229.587 91.545 228.48 91.545Z" stroke="black" stroke-width="18" mask="url(#path-2-outside-2_14_6)"/>
<path d="M337.984 170.552C329.372 170.552 321.432 169.098 314.163 166.189C306.974 163.28 300.772 159.232 295.557 154.043C290.343 148.776 286.274 142.526 283.351 135.294C280.427 128.061 278.966 120.082 278.966 111.356C278.966 106.639 279.361 102.119 280.151 97.7948C281.02 93.3924 282.165 89.3045 283.588 85.531C284.22 84.0373 284.536 82.976 284.536 82.3471C284.536 81.561 284.338 80.8141 283.943 80.1066C283.548 79.3991 283.114 78.6522 282.64 77.8661C282.165 77.0799 281.731 76.2545 281.336 75.3897C280.941 74.525 280.743 73.5423 280.743 72.4417C280.743 69.1399 282.64 65.9167 286.432 62.7722C290.224 59.549 295.241 56.7189 301.483 54.2818C307.724 51.7662 314.795 49.7615 322.696 48.2678C330.597 46.6955 338.695 45.9094 346.99 45.9094C357.182 45.9094 366.347 47.2065 374.485 49.8008C382.701 52.3951 389.654 56.1292 395.343 61.0033C401.11 65.7988 405.534 71.6556 408.616 78.5736C411.697 85.4917 413.238 93.2745 413.238 101.922C413.238 111.592 411.302 120.632 407.431 129.044C403.559 137.377 398.226 144.61 391.432 150.742C384.716 156.873 376.776 161.708 367.611 165.246C358.446 168.783 348.571 170.552 337.984 170.552ZM389.417 106.521C389.417 100.389 388.35 94.8861 386.217 90.012C384.084 85.1379 381.003 81.05 376.973 77.7482C372.944 74.3678 367.967 71.8128 362.041 70.0833C356.195 68.2751 349.558 67.3711 342.132 67.3711C329.095 67.3711 319.259 70.6729 312.623 77.2765C306.065 83.8015 302.786 93.5496 302.786 106.521C302.786 112.81 303.774 118.588 305.749 123.855C307.724 129.044 310.489 133.525 314.045 137.298C317.6 140.993 321.827 143.902 326.725 146.025C331.703 148.069 337.154 149.091 343.08 149.091C349.874 149.091 356.116 148.069 361.804 146.025C367.493 143.902 372.352 140.954 376.381 137.181C380.489 133.407 383.689 128.926 385.98 123.738C388.271 118.47 389.417 112.732 389.417 106.521Z" stroke="black" stroke-width="18" mask="url(#path-2-outside-2_14_6)"/>
<path d="M543.243 91.545C542.295 91.545 541.465 92.2918 540.754 93.7855C537.752 99.6029 534.552 104.87 531.155 109.587C527.837 114.304 524.479 118.313 521.082 121.615C517.684 124.917 514.327 127.472 511.008 129.28C507.69 131.009 504.569 131.874 501.646 131.874C498.802 131.874 496.155 131.284 493.706 130.105C491.336 128.847 488.728 126.528 485.884 123.148C483.119 119.767 479.919 115.09 476.285 109.115C472.73 103.141 468.345 95.3578 463.13 85.7668C462.261 84.1945 461.353 83.0546 460.404 82.3471C459.535 81.561 458.745 81.1679 458.034 81.1679C457.007 81.1679 456.059 82.2685 455.19 84.4697C454.321 86.5923 453.57 89.6189 452.938 93.5496C452.306 97.4017 451.793 102.079 451.398 107.582C451.082 113.007 450.924 119.021 450.924 125.624C450.924 129.555 451.121 133.486 451.516 137.416C451.99 141.347 452.227 145.396 452.227 149.562C452.227 150.977 451.832 152.314 451.042 153.572C450.252 154.751 449.186 155.773 447.842 156.638C446.578 157.581 445.038 158.328 443.221 158.878C441.482 159.428 439.626 159.704 437.651 159.704C433.7 159.704 430.856 157.345 429.118 152.628C427.38 147.911 426.511 140.364 426.511 129.987C426.511 116.859 427.222 104.949 428.644 94.2572C430.145 83.487 432.239 74.2891 434.925 66.6636C437.69 58.9594 440.929 53.024 444.643 48.8574C448.435 44.6123 452.662 42.4897 457.323 42.4897C461.432 42.4897 465.342 44.8481 469.056 49.565C472.848 54.2032 476.917 61.7502 481.262 72.2059C483 76.451 484.857 80.4211 486.832 84.1159C488.886 87.8108 490.901 91.034 492.876 93.7855C494.93 96.4584 496.906 98.5809 498.802 100.153C500.698 101.647 502.397 102.394 503.898 102.394C505.399 102.394 506.821 102.079 508.164 101.45C509.586 100.743 511.166 99.2885 512.904 97.0873C514.722 94.8075 516.815 91.5057 519.185 87.1819C521.635 82.8581 524.637 77.0799 528.192 69.8474C530.088 66.0739 531.787 62.9294 533.288 60.4137C534.789 57.8981 536.29 55.8934 537.791 54.3997C539.293 52.8274 540.873 51.7268 542.532 51.0979C544.191 50.3904 546.048 50.0366 548.102 50.0366C550.551 50.0366 552.961 51.3338 555.331 53.928C557.701 56.5223 559.992 59.9813 562.205 64.3051C564.496 68.6289 566.708 73.6602 568.841 79.3991C570.974 85.1379 573.028 91.1519 575.004 97.441C577.058 103.73 579.033 110.137 580.929 116.662C582.904 123.109 584.8 129.241 586.618 135.058C587.092 136.787 587.408 138.006 587.566 138.714C587.803 139.342 587.921 140.129 587.921 141.072C587.921 142.408 587.487 143.745 586.618 145.081C585.828 146.339 584.761 147.479 583.418 148.501C582.075 149.523 580.534 150.348 578.796 150.977C577.137 151.606 575.478 151.921 573.819 151.921C571.606 151.921 569.868 151.685 568.604 151.213C567.419 150.663 566.471 149.72 565.76 148.383C565.365 147.676 564.693 145.789 563.745 142.723C562.797 139.657 561.651 136.041 560.308 131.874C559.044 127.629 557.622 123.148 556.042 118.431C554.541 113.714 553 109.39 551.42 105.46C549.919 101.45 548.457 98.1486 547.035 95.5543C545.613 92.8814 544.349 91.545 543.243 91.545Z" stroke="black" stroke-width="18" mask="url(#path-2-outside-2_14_6)"/>
<path d="M652.746 170.552C644.134 170.552 636.194 169.098 628.926 166.189C621.736 163.28 615.534 159.232 610.32 154.043C605.105 148.776 601.036 142.526 598.113 135.294C595.19 128.061 593.728 120.082 593.728 111.356C593.728 106.639 594.123 102.119 594.913 97.7948C595.782 93.3924 596.928 89.3045 598.35 85.531C598.982 84.0373 599.298 82.976 599.298 82.3471C599.298 81.561 599.101 80.8141 598.706 80.1066C598.311 79.3991 597.876 78.6522 597.402 77.8661C596.928 77.0799 596.493 76.2545 596.098 75.3897C595.703 74.525 595.506 73.5423 595.506 72.4417C595.506 69.1399 597.402 65.9167 601.194 62.7722C604.987 59.549 610.004 56.7189 616.245 54.2818C622.487 51.7662 629.558 49.7615 637.458 48.2678C645.359 46.6955 653.457 45.9094 661.753 45.9094C671.945 45.9094 681.11 47.2065 689.247 49.8008C697.464 52.3951 704.417 56.1292 710.105 61.0033C715.872 65.7988 720.297 71.6556 723.378 78.5736C726.459 85.4917 728 93.2745 728 101.922C728 111.592 726.064 120.632 722.193 129.044C718.322 137.377 712.989 144.61 706.194 150.742C699.479 156.873 691.538 161.708 682.374 165.246C673.209 168.783 663.333 170.552 652.746 170.552ZM704.179 106.521C704.179 100.389 703.113 94.8861 700.98 90.012C698.847 85.1379 695.765 81.05 691.736 77.7482C687.707 74.3678 682.729 71.8128 676.804 70.0833C670.957 68.2751 664.321 67.3711 656.894 67.3711C643.858 67.3711 634.022 70.6729 627.385 77.2765C620.827 83.8015 617.549 93.5496 617.549 106.521C617.549 112.81 618.536 118.588 620.511 123.855C622.487 129.044 625.252 133.525 628.807 137.298C632.362 140.993 636.589 143.902 641.488 146.025C646.465 148.069 651.917 149.091 657.842 149.091C664.637 149.091 670.878 148.069 676.567 146.025C682.255 143.902 687.114 140.954 691.143 137.181C695.252 133.407 698.452 128.926 700.743 123.738C703.034 118.47 704.179 112.732 704.179 106.521Z" stroke="black" stroke-width="18" mask="url(#path-2-outside-2_14_6)"/>
</svg>
